  0
SECTION
  2
HEADER
  9
$ACADVER
  1
AC1014
  9
$HANDSEED
  5
FFFF
  9
$MEASUREMENT
 70
     1
  0
ENDSEC
  0
SECTION
  2
TABLES
  0
TABLE
  2
VPORT
  5
8
330
0
100
AcDbSymbolTable
 70
     4
  0
VPORT
  5
2E
330
8
100
AcDbSymbolTableRecord
100
AcDbViewportTableRecord
  2
*ACTIVE
 70
     0
 10
0.0
 20
0.0
 11
1.0
 21
1.0
 12
210.0
 22
148.5
 13
0.0
 23
0.0
 14
10.0
 24
10.0
 15
10.0
 25
10.0
 16
0.0
 26
0.0
 36
1.0
 17
0.0
 27
0.0
 37
0.0
 40
341.0
 41
1.24
 42
50.0
 43
0.0
 44
0.0
 50
0.0
 51
0.0
 71
     0
 72
   100
 73
     1
 74
     3
 75
     0
 76
     0
 77
     0
 78
     0
  0
ENDTAB
  0
TABLE
  2
LTYPE
  5
5
330
0
100
AcDbSymbolTable
 70
     1
  0
LTYPE
  5
14
330
5
100
AcDbSymbolTableRecord
100
AcDbLinetypeTableRecord
  2
BYBLOCK
 70
     0
  3

 72
    65
 73
     0
 40
0.0
  0
LTYPE
  5
15
330
5
100
AcDbSymbolTableRecord
100
AcDbLinetypeTableRecord
  2
BYLAYER
 70
     0
  3

 72
    65
 73
     0
 40
0.0
  0
LTYPE
  5
16
330
5
100
AcDbSymbolTableRecord
100
AcDbLinetypeTableRecord
  2
CONTINUOUS
 70
     0
  3
Solid line
 72
    65
 73
     0
 40
0.0
  0
ENDTAB
  0
TABLE
  2
LAYER
  5
2
100
AcDbSymbolTable
 70
7
  0
LAYER
  5
50
100
AcDbSymbolTableRecord
100
AcDbLayerTableRecord
  2
0
 70
0
  6
CONTINUOUS
  0
LAYER
  5
51
100
AcDbSymbolTableRecord
100
AcDbLayerTableRecord
  2
Picture
 70
0
  6
CONTINUOUS
  0
LAYER
  5
52
100
AcDbSymbolTableRecord
100
AcDbLayerTableRecord
  2
Layer_1
 70
0
  6
CONTINUOUS
  0
LAYER
  5
53
100
AcDbSymbolTableRecord
100
AcDbLayerTableRecord
  2
Purple
 70
0
  6
CONTINUOUS
  0
LAYER
  5
54
100
AcDbSymbolTableRecord
100
AcDbLayerTableRecord
  2
Blue
 70
0
  6
CONTINUOUS
  0
LAYER
  5
55
100
AcDbSymbolTableRecord
100
AcDbLayerTableRecord
  2
Green
 70
0
  6
CONTINUOUS
  0
LAYER
  5
56
100
AcDbSymbolTableRecord
100
AcDbLayerTableRecord
  2
Red
 70
0
  6
CONTINUOUS
  0
ENDTAB
  0
TABLE
  2
STYLE
  5
3
330
0
100
AcDbSymbolTable
 70
     1
  0
STYLE
  5
11
330
3
100
AcDbSymbolTableRecord
100
AcDbTextStyleTableRecord
  2
STANDARD
 70
     0
 40
0.0
 41
1.0
 50
0.0
 71
     0
 42
2.5
  3
txt
  4

  0
ENDTAB
  0
TABLE
  2
VIEW
  5
6
330
0
100
AcDbSymbolTable
 70
     0
  0
ENDTAB
  0
TABLE
  2
UCS
  5
7
330
0
100
AcDbSymbolTable
 70
     0
  0
ENDTAB
  0
TABLE
  2
APPID
  5
9
330
0
100
AcDbSymbolTable
 70
     2
  0
APPID
  5
12
330
9
100
AcDbSymbolTableRecord
100
AcDbRegAppTableRecord
  2
ACAD
 70
     0
  0
ENDTAB
  0
TABLE
  2
DIMSTYLE
  5
A
330
0
100
AcDbSymbolTable
 70
     1
  0
DIMSTYLE
105
27
330
A
100
AcDbSymbolTableRecord
100
AcDbDimStyleTableRecord
  2
ISO-25
 70
     0
  3

  4

  5

  6

  7

 40
1.0
 41
2.5
 42
0.625
 43
3.75
 44
1.25
 45
0.0
 46
0.0
 47
0.0
 48
0.0
140
2.5
141
2.5
142
0.0
143
0.03937007874016
144
1.0
145
0.0
146
1.0
147
0.625
 71
     0
 72
     0
 73
     0
 74
     0
 75
     0
 76
     0
 77
     1
 78
     8
170
     0
171
     3
172
     1
173
     0
174
     0
175
     0
176
     0
177
     0
178
     0
270
     2
271
     2
272
     2
273
     2
274
     3
340
11
275
     0
280
     0
281
     0
282
     0
283
     0
284
     8
285
     0
286
     0
287
     3
288
     0
  0
ENDTAB
  0
TABLE
  2
BLOCK_RECORD
  5
1
330
0
100
AcDbSymbolTable
 70
     1
  0
BLOCK_RECORD
  5
1F
330
1
100
AcDbSymbolTableRecord
100
AcDbBlockTableRecord
  2
*MODEL_SPACE
  0
BLOCK_RECORD
  5
1B
330
1
100
AcDbSymbolTableRecord
100
AcDbBlockTableRecord
  2
*PAPER_SPACE
  0
ENDTAB
  0
ENDSEC
  0
SECTION
  2
BLOCKS
  0
BLOCK
  5
20
330
1F
100
AcDbEntity
  8
0
100
AcDbBlockBegin
  2
*MODEL_SPACE
 70
     0
 10
0.0
 20
0.0
 30
0.0
  3
*MODEL_SPACE
  1

  0
ENDBLK
  5
21
330
1F
100
AcDbEntity
  8
0
100
AcDbBlockEnd
  0
BLOCK
  5
1C
330
1B
100
AcDbEntity
 67
     1
  8
0
100
AcDbBlockBegin
  2
*PAPER_SPACE
  1

  0
ENDBLK
  5
1D
330
1B
100
AcDbEntity
 67
     1
  8
0
100
AcDbBlockEnd
  0
ENDSEC
  0
SECTION
  2
ENTITIES
  0
SPLINE
  5
100
100
AcDbEntity
  8
Red
 62
1
100
AcDbSpline
 70
8
 71
3
 72
8
 73
4
 74
0
 40
0
 40
0
 40
0
 40
0
 40
1
 40
1
 40
1
 40
1
 10
5.173919
 20
8.293443
 30
0.0
 10
5.210423
 20
8.992727
 30
0.0
 10
4.657684
 20
9.437909
 30
0.0
 10
4.074142
 20
9.606432
 30
0.0
  0
SPLINE
  5
101
100
AcDbEntity
  8
Red
 62
1
100
AcDbSpline
 70
8
 71
3
 72
8
 73
4
 74
0
 40
0
 40
0
 40
0
 40
0
 40
1
 40
1
 40
1
 40
1
 10
4.074142
 20
9.606432
 30
0.0
 10
3.745084
 20
9.701461
 30
0.0
 10
3.376774
 20
9.899989
 30
0.0
 10
2.789579
 20
10.162668
 30
0.0
  0
SPLINE
  5
102
100
AcDbEntity
  8
Red
 62
1
100
AcDbSpline
 70
8
 71
3
 72
8
 73
4
 74
0
 40
0
 40
0
 40
0
 40
0
 40
1
 40
1
 40
1
 40
1
 10
2.789579
 20
10.162668
 30
0.0
 10
2.583606
 20
9.998078
 30
0.0
 10
2.399827
 20
9.825235
 30
0.0
 10
2.240619
 20
9.619554
 30
0.0
  0
SPLINE
  5
103
100
AcDbEntity
  8
Red
 62
1
100
AcDbSpline
 70
8
 71
3
 72
8
 73
4
 74
0
 40
0
 40
0
 40
0
 40
0
 40
1
 40
1
 40
1
 40
1
 10
2.240619
 20
9.619554
 30
0.0
 10
1.973711
 20
9.239718
 30
0.0
 10
1.751776
 20
8.822041
 30
0.0
 10
1.540512
 20
8.413959
 30
0.0
  0
SPLINE
  5
104
100
AcDbEntity
  8
Red
 62
1
100
AcDbSpline
 70
8
 71
3
 72
8
 73
4
 74
0
 40
0
 40
0
 40
0
 40
0
 40
1
 40
1
 40
1
 40
1
 10
1.540512
 20
8.413959
 30
0.0
 10
1.933727
 20
8.703629
 30
0.0
 10
2.429072
 20
8.855345
 30
0.0
 10
2.904964
 20
8.882073
 30
0.0
  0
SPLINE
  5
105
100
AcDbEntity
  8
Red
 62
1
100
AcDbSpline
 70
8
 71
3
 72
8
 73
4
 74
0
 40
0
 40
0
 40
0
 40
0
 40
1
 40
1
 40
1
 40
1
 10
2.904964
 20
8.882073
 30
0.0
 10
3.195725
 20
8.899924
 30
0.0
 10
4.101736
 20
8.965196
 30
0.0
 10
3.443674
 20
9.359641
 30
0.0
  0
SPLINE
  5
106
100
AcDbEntity
  8
Red
 62
1
100
AcDbSpline
 70
8
 71
3
 72
8
 73
4
 74
0
 40
0
 40
0
 40
0
 40
0
 40
1
 40
1
 40
1
 40
1
 10
3.443674
 20
9.359641
 30
0.0
 10
3.346335
 20
9.360098
 30
0.0
 10
3.204137
 20
9.306096
 30
0.0
 10
3.140857
 20
9.410789
 30
0.0
  0
SPLINE
  5
107
100
AcDbEntity
  8
Red
 62
1
100
AcDbSpline
 70
8
 71
3
 72
8
 73
4
 74
0
 40
0
 40
0
 40
0
 40
0
 40
1
 40
1
 40
1
 40
1
 10
3.140857
 20
9.410789
 30
0.0
 10
3.064349
 20
9.537368
 30
0.0
 10
2.872995
 20
9.542711
 30
0.0
 10
2.792506
 20
9.663042
 30
0.0
  0
SPLINE
  5
108
100
AcDbEntity
  8
Red
 62
1
100
AcDbSpline
 70
8
 71
3
 72
8
 73
4
 74
0
 40
0
 40
0
 40
0
 40
0
 40
1
 40
1
 40
1
 40
1
 10
2.792506
 20
9.663042
 30
0.0
 10
3.012969
 20
9.514510
 30
0.0
 10
3.489898
 20
9.911991
 30
0.0
 10
3.496626
 20
9.454096
 30
0.0
  0
SPLINE
  5
109
100
AcDbEntity
  8
Red
 62
1
100
AcDbSpline
 70
8
 71
3
 72
8
 73
4
 74
0
 40
0
 40
0
 40
0
 40
0
 40
1
 40
1
 40
1
 40
1
 10
3.496626
 20
9.454096
 30
0.0
 10
3.867900
 20
9.521649
 30
0.0
 10
4.007681
 20
8.846536
 30
0.0
 10
3.590723
 20
8.840138
 30
0.0
  0
SPLINE
  5
10a
100
AcDbEntity
  8
Red
 62
1
100
AcDbSpline
 70
8
 71
3
 72
8
 73
4
 74
0
 40
0
 40
0
 40
0
 40
0
 40
1
 40
1
 40
1
 40
1
 10
3.590723
 20
8.840138
 30
0.0
 10
3.717407
 20
8.842780
 30
0.0
 10
3.849991
 20
8.846100
 30
0.0
 10
3.964503
 20
8.795877
 30
0.0
  0
SPLINE
  5
10b
100
AcDbEntity
  8
Red
 62
1
100
AcDbSpline
 70
8
 71
3
 72
8
 73
4
 74
0
 40
0
 40
0
 40
0
 40
0
 40
1
 40
1
 40
1
 40
1
 10
3.964503
 20
8.795877
 30
0.0
 10
3.562762
 20
9.207535
 30
0.0
 10
4.362005
 20
9.710918
 30
0.0
 10
4.552090
 20
9.159282
 30
0.0
  0
SPLINE
  5
10c
100
AcDbEntity
  8
Red
 62
1
100
AcDbSpline
 70
8
 71
3
 72
8
 73
4
 74
0
 40
0
 40
0
 40
0
 40
0
 40
1
 40
1
 40
1
 40
1
 10
4.552090
 20
9.159282
 30
0.0
 10
4.776994
 20
9.170353
 30
0.0
 10
4.865418
 20
8.903899
 30
0.0
 10
4.856997
 20
8.719282
 30
0.0
  0
SPLINE
  5
10d
100
AcDbEntity
  8
Red
 62
1
100
AcDbSpline
 70
8
 71
3
 72
8
 73
4
 74
0
 40
0
 40
0
 40
0
 40
0
 40
1
 40
1
 40
1
 40
1
 10
4.856997
 20
8.719282
 30
0.0
 10
4.715128
 20
8.841370
 30
0.0
 10
4.307480
 20
8.742699
 30
0.0
 10
4.416132
 20
9.054808
 30
0.0
  0
SPLINE
  5
10e
100
AcDbEntity
  8
Red
 62
1
100
AcDbSpline
 70
8
 71
3
 72
8
 73
4
 74
0
 40
0
 40
0
 40
0
 40
0
 40
1
 40
1
 40
1
 40
1
 10
4.416132
 20
9.054808
 30
0.0
 10
4.002138
 20
9.518963
 30
0.0
 10
3.981114
 20
8.800726
 30
0.0
 10
4.495865
 20
8.664532
 30
0.0
  0
SPLINE
  5
10f
100
AcDbEntity
  8
Red
 62
1
100
AcDbSpline
 70
8
 71
3
 72
8
 73
4
 74
0
 40
0
 40
0
 40
0
 40
0
 40
1
 40
1
 40
1
 40
1
 10
4.495865
 20
8.664532
 30
0.0
 10
4.735477
 20
8.580943
 30
0.0
 10
4.988844
 20
8.464826
 30
0.0
 10
5.178213
 20
8.293443
 30
0.0
  0
SPLINE
  5
110
100
AcDbEntity
  8
Red
 62
1
100
AcDbSpline
 70
8
 71
3
 72
8
 73
4
 74
0
 40
0
 40
0
 40
0
 40
0
 40
1
 40
1
 40
1
 40
1
 10
6.818206
 20
8.293443
 30
0.0
 10
6.781703
 20
8.992727
 30
0.0
 10
7.334441
 20
9.437909
 30
0.0
 10
7.917984
 20
9.606432
 30
0.0
  0
SPLINE
  5
111
100
AcDbEntity
  8
Red
 62
1
100
AcDbSpline
 70
8
 71
3
 72
8
 73
4
 74
0
 40
0
 40
0
 40
0
 40
0
 40
1
 40
1
 40
1
 40
1
 10
7.917984
 20
9.606432
 30
0.0
 10
8.247041
 20
9.701461
 30
0.0
 10
8.615352
 20
9.899989
 30
0.0
 10
9.202546
 20
10.162668
 30
0.0
  0
SPLINE
  5
112
100
AcDbEntity
  8
Red
 62
1
100
AcDbSpline
 70
8
 71
3
 72
8
 73
4
 74
0
 40
0
 40
0
 40
0
 40
0
 40
1
 40
1
 40
1
 40
1
 10
9.202546
 20
10.162668
 30
0.0
 10
9.408519
 20
9.998078
 30
0.0
 10
9.592298
 20
9.825235
 30
0.0
 10
9.751507
 20
9.619554
 30
0.0
  0
SPLINE
  5
113
100
AcDbEntity
  8
Red
 62
1
100
AcDbSpline
 70
8
 71
3
 72
8
 73
4
 74
0
 40
0
 40
0
 40
0
 40
0
 40
1
 40
1
 40
1
 40
1
 10
9.751507
 20
9.619554
 30
0.0
 10
10.018415
 20
9.239718
 30
0.0
 10
10.240349
 20
8.822041
 30
0.0
 10
10.451613
 20
8.413959
 30
0.0
  0
SPLINE
  5
114
100
AcDbEntity
  8
Red
 62
1
100
AcDbSpline
 70
8
 71
3
 72
8
 73
4
 74
0
 40
0
 40
0
 40
0
 40
0
 40
1
 40
1
 40
1
 40
1
 10
10.451613
 20
8.413959
 30
0.0
 10
10.058398
 20
8.703629
 30
0.0
 10
9.563054
 20
8.855345
 30
0.0
 10
9.087162
 20
8.882073
 30
0.0
  0
SPLINE
  5
115
100
AcDbEntity
  8
Red
 62
1
100
AcDbSpline
 70
8
 71
3
 72
8
 73
4
 74
0
 40
0
 40
0
 40
0
 40
0
 40
1
 40
1
 40
1
 40
1
 10
9.087162
 20
8.882073
 30
0.0
 10
8.796400
 20
8.899924
 30
0.0
 10
7.890390
 20
8.965196
 30
0.0
 10
8.548452
 20
9.359641
 30
0.0
  0
SPLINE
  5
116
100
AcDbEntity
  8
Red
 62
1
100
AcDbSpline
 70
8
 71
3
 72
8
 73
4
 74
0
 40
0
 40
0
 40
0
 40
0
 40
1
 40
1
 40
1
 40
1
 10
8.548452
 20
9.359641
 30
0.0
 10
8.645791
 20
9.360098
 30
0.0
 10
8.787989
 20
9.306096
 30
0.0
 10
8.851269
 20
9.410789
 30
0.0
  0
SPLINE
  5
117
100
AcDbEntity
  8
Red
 62
1
100
AcDbSpline
 70
8
 71
3
 72
8
 73
4
 74
0
 40
0
 40
0
 40
0
 40
0
 40
1
 40
1
 40
1
 40
1
 10
8.851269
 20
9.410789
 30
0.0
 10
8.927776
 20
9.537368
 30
0.0
 10
9.119130
 20
9.542711
 30
0.0
 10
9.199619
 20
9.663042
 30
0.0
  0
SPLINE
  5
118
100
AcDbEntity
  8
Red
 62
1
100
AcDbSpline
 70
8
 71
3
 72
8
 73
4
 74
0
 40
0
 40
0
 40
0
 40
0
 40
1
 40
1
 40
1
 40
1
 10
9.199619
 20
9.663042
 30
0.0
 10
8.979156
 20
9.514510
 30
0.0
 10
8.502227
 20
9.911991
 30
0.0
 10
8.495500
 20
9.454096
 30
0.0
  0
SPLINE
  5
119
100
AcDbEntity
  8
Red
 62
1
100
AcDbSpline
 70
8
 71
3
 72
8
 73
4
 74
0
 40
0
 40
0
 40
0
 40
0
 40
1
 40
1
 40
1
 40
1
 10
8.495500
 20
9.454096
 30
0.0
 10
8.124226
 20
9.521649
 30
0.0
 10
7.984445
 20
8.846536
 30
0.0
 10
8.401402
 20
8.840138
 30
0.0
  0
SPLINE
  5
11a
100
AcDbEntity
  8
Red
 62
1
100
AcDbSpline
 70
8
 71
3
 72
8
 73
4
 74
0
 40
0
 40
0
 40
0
 40
0
 40
1
 40
1
 40
1
 40
1
 10
8.401402
 20
8.840138
 30
0.0
 10
8.274719
 20
8.842780
 30
0.0
 10
8.142134
 20
8.846100
 30
0.0
 10
8.027623
 20
8.795877
 30
0.0
  0
SPLINE
  5
11b
100
AcDbEntity
  8
Red
 62
1
100
AcDbSpline
 70
8
 71
3
 72
8
 73
4
 74
0
 40
0
 40
0
 40
0
 40
0
 40
1
 40
1
 40
1
 40
1
 10
8.027623
 20
8.795877
 30
0.0
 10
8.429364
 20
9.207535
 30
0.0
 10
7.630120
 20
9.710918
 30
0.0
 10
7.440036
 20
9.159282
 30
0.0
  0
SPLINE
  5
11c
100
AcDbEntity
  8
Red
 62
1
100
AcDbSpline
 70
8
 71
3
 72
8
 73
4
 74
0
 40
0
 40
0
 40
0
 40
0
 40
1
 40
1
 40
1
 40
1
 10
7.440036
 20
9.159282
 30
0.0
 10
7.215131
 20
9.170353
 30
0.0
 10
7.126708
 20
8.903899
 30
0.0
 10
7.135129
 20
8.719282
 30
0.0
  0
SPLINE
  5
11d
100
AcDbEntity
  8
Red
 62
1
100
AcDbSpline
 70
8
 71
3
 72
8
 73
4
 74
0
 40
0
 40
0
 40
0
 40
0
 40
1
 40
1
 40
1
 40
1
 10
7.135129
 20
8.719282
 30
0.0
 10
7.276998
 20
8.841370
 30
0.0
 10
7.684645
 20
8.742699
 30
0.0
 10
7.575994
 20
9.054808
 30
0.0
  0
SPLINE
  5
11e
100
AcDbEntity
  8
Red
 62
1
100
AcDbSpline
 70
8
 71
3
 72
8
 73
4
 74
0
 40
0
 40
0
 40
0
 40
0
 40
1
 40
1
 40
1
 40
1
 10
7.575994
 20
9.054808
 30
0.0
 10
7.989988
 20
9.518963
 30
0.0
 10
8.011011
 20
8.800726
 30
0.0
 10
7.496261
 20
8.664532
 30
0.0
  0
SPLINE
  5
11f
100
AcDbEntity
  8
Red
 62
1
100
AcDbSpline
 70
8
 71
3
 72
8
 73
4
 74
0
 40
0
 40
0
 40
0
 40
0
 40
1
 40
1
 40
1
 40
1
 10
7.496261
 20
8.664532
 30
0.0
 10
7.256649
 20
8.580943
 30
0.0
 10
7.003282
 20
8.464826
 30
0.0
 10
6.813913
 20
8.293443
 30
0.0
  0
SPLINE
  5
120
100
AcDbEntity
  8
Red
 62
1
100
AcDbSpline
 70
8
 71
3
 72
8
 73
4
 74
0
 40
0
 40
0
 40
0
 40
0
 40
1
 40
1
 40
1
 40
1
 10
4.505257
 20
11.056513
 30
0.0
 10
4.554826
 20
11.119373
 30
0.0
 10
4.699260
 20
11.284564
 30
0.0
 10
4.749738
 20
11.345850
 30
0.0
  0
SPLINE
  5
121
100
AcDbEntity
  8
Red
 62
1
100
AcDbSpline
 70
8
 71
3
 72
8
 73
4
 74
0
 40
0
 40
0
 40
0
 40
0
 40
1
 40
1
 40
1
 40
1
 10
4.749738
 20
11.345850
 30
0.0
 10
4.639772
 20
11.328300
 30
0.0
 10
4.513860
 20
11.297828
 30
0.0
 10
4.395988
 20
11.273489
 30
0.0
  0
SPLINE
  5
122
100
AcDbEntity
  8
Red
 62
1
100
AcDbSpline
 70
8
 71
3
 72
8
 73
4
 74
0
 40
0
 40
0
 40
0
 40
0
 40
1
 40
1
 40
1
 40
1
 10
4.395988
 20
11.273489
 30
0.0
 10
4.295182
 20
11.252674
 30
0.0
 10
4.093686
 20
11.210484
 30
0.0
 10
4.093686
 20
11.210484
 30
0.0
  0
SPLINE
  5
123
100
AcDbEntity
  8
Red
 62
1
100
AcDbSpline
 70
8
 71
3
 72
8
 73
4
 74
0
 40
0
 40
0
 40
0
 40
0
 40
1
 40
1
 40
1
 40
1
 10
4.093686
 20
11.210484
 30
0.0
 10
4.093686
 20
11.210484
 30
0.0
 10
4.013785
 20
11.131042
 30
0.0
 10
3.978833
 20
11.094275
 30
0.0
  0
SPLINE
  5
124
100
AcDbEntity
  8
Red
 62
1
100
AcDbSpline
 70
8
 71
3
 72
8
 73
4
 74
0
 40
0
 40
0
 40
0
 40
0
 40
1
 40
1
 40
1
 40
1
 10
3.978833
 20
11.094275
 30
0.0
 10
3.681956
 20
10.827954
 30
0.0
 10
3.345746
 20
10.619932
 30
0.0
 10
3.026313
 20
10.382988
 30
0.0
  0
SPLINE
  5
125
100
AcDbEntity
  8
Red
 62
1
100
AcDbSpline
 70
8
 71
3
 72
8
 73
4
 74
0
 40
0
 40
0
 40
0
 40
0
 40
1
 40
1
 40
1
 40
1
 10
3.026313
 20
10.382988
 30
0.0
 10
3.074850
 20
10.106518
 30
0.0
 10
3.903561
 20
9.884926
 30
0.0
 10
4.285183
 20
9.700252
 30
0.0
  0
SPLINE
  5
126
100
AcDbEntity
  8
Red
 62
1
100
AcDbSpline
 70
8
 71
3
 72
8
 73
4
 74
0
 40
0
 40
0
 40
0
 40
0
 40
1
 40
1
 40
1
 40
1
 10
4.285183
 20
9.700252
 30
0.0
 10
3.899855
 20
10.098332
 30
0.0
 10
4.185551
 20
10.712179
 30
0.0
 10
4.505257
 20
11.056513
 30
0.0
  0
SPLINE
  5
127
100
AcDbEntity
  8
Red
 62
1
100
AcDbSpline
 70
8
 71
3
 72
8
 73
4
 74
0
 40
0
 40
0
 40
0
 40
0
 40
1
 40
1
 40
1
 40
1
 10
7.486868
 20
11.056513
 30
0.0
 10
7.437299
 20
11.119373
 30
0.0
 10
7.292866
 20
11.284564
 30
0.0
 10
7.242388
 20
11.345850
 30
0.0
  0
SPLINE
  5
128
100
AcDbEntity
  8
Red
 62
1
100
AcDbSpline
 70
8
 71
3
 72
8
 73
4
 74
0
 40
0
 40
0
 40
0
 40
0
 40
1
 40
1
 40
1
 40
1
 10
7.242388
 20
11.345850
 30
0.0
 10
7.352354
 20
11.328300
 30
0.0
 10
7.478266
 20
11.297828
 30
0.0
 10
7.596138
 20
11.273489
 30
0.0
  0
SPLINE
  5
129
100
AcDbEntity
  8
Red
 62
1
100
AcDbSpline
 70
8
 71
3
 72
8
 73
4
 74
0
 40
0
 40
0
 40
0
 40
0
 40
1
 40
1
 40
1
 40
1
 10
7.596138
 20
11.273489
 30
0.0
 10
7.696943
 20
11.252674
 30
0.0
 10
7.898440
 20
11.210484
 30
0.0
 10
7.898440
 20
11.210484
 30
0.0
  0
SPLINE
  5
12a
100
AcDbEntity
  8
Red
 62
1
100
AcDbSpline
 70
8
 71
3
 72
8
 73
4
 74
0
 40
0
 40
0
 40
0
 40
0
 40
1
 40
1
 40
1
 40
1
 10
7.898440
 20
11.210484
 30
0.0
 10
7.898440
 20
11.210484
 30
0.0
 10
7.978340
 20
11.131042
 30
0.0
 10
8.013293
 20
11.094275
 30
0.0
  0
SPLINE
  5
12b
100
AcDbEntity
  8
Red
 62
1
100
AcDbSpline
 70
8
 71
3
 72
8
 73
4
 74
0
 40
0
 40
0
 40
0
 40
0
 40
1
 40
1
 40
1
 40
1
 10
8.013293
 20
11.094275
 30
0.0
 10
8.310169
 20
10.827954
 30
0.0
 10
8.646380
 20
10.619932
 30
0.0
 10
8.965813
 20
10.382988
 30
0.0
  0
SPLINE
  5
12c
100
AcDbEntity
  8
Red
 62
1
100
AcDbSpline
 70
8
 71
3
 72
8
 73
4
 74
0
 40
0
 40
0
 40
0
 40
0
 40
1
 40
1
 40
1
 40
1
 10
8.965813
 20
10.382988
 30
0.0
 10
8.917276
 20
10.106518
 30
0.0
 10
8.088565
 20
9.884926
 30
0.0
 10
7.706943
 20
9.700252
 30
0.0
  0
SPLINE
  5
12d
100
AcDbEntity
  8
Red
 62
1
100
AcDbSpline
 70
8
 71
3
 72
8
 73
4
 74
0
 40
0
 40
0
 40
0
 40
0
 40
1
 40
1
 40
1
 40
1
 10
7.706943
 20
9.700252
 30
0.0
 10
8.092270
 20
10.098332
 30
0.0
 10
7.806574
 20
10.712179
 30
0.0
 10
7.486868
 20
11.056513
 30
0.0
  0
LWPOLYLINE
  5
12e
100
AcDbEntity
  8
Red
 62
1
100
AcDbPolyline
 90
1
 70
1
 10
4.505257
 20
11.056513
 30
0.0
  0
SPLINE
  5
12f
100
AcDbEntity
  8
Red
 62
1
100
AcDbSpline
 70
8
 71
3
 72
8
 73
4
 74
0
 40
0
 40
0
 40
0
 40
0
 40
1
 40
1
 40
1
 40
1
 10
5.092010
 20
11.762227
 30
0.0
 10
4.894803
 20
11.704752
 30
0.0
 10
4.689456
 20
11.617553
 30
0.0
 10
4.511295
 20
11.513177
 30
0.0
  0
SPLINE
  5
130
100
AcDbEntity
  8
Red
 62
1
100
AcDbSpline
 70
8
 71
3
 72
8
 73
4
 74
0
 40
0
 40
0
 40
0
 40
0
 40
1
 40
1
 40
1
 40
1
 10
4.511295
 20
11.513177
 30
0.0
 10
4.514736
 20
11.511413
 30
0.0
 10
4.526058
 20
11.515390
 30
0.0
 10
4.530057
 20
11.516276
 30
0.0
  0
SPLINE
  5
131
100
AcDbEntity
  8
Red
 62
1
100
AcDbSpline
 70
8
 71
3
 72
8
 73
4
 74
0
 40
0
 40
0
 40
0
 40
0
 40
1
 40
1
 40
1
 40
1
 10
4.530057
 20
11.516276
 30
0.0
 10
4.673756
 20
11.548076
 30
0.0
 10
4.820231
 20
11.580147
 30
0.0
 10
4.967444
 20
11.613344
 30
0.0
  0
SPLINE
  5
132
100
AcDbEntity
  8
Red
 62
1
100
AcDbSpline
 70
8
 71
3
 72
8
 73
4
 74
0
 40
0
 40
0
 40
0
 40
0
 40
1
 40
1
 40
1
 40
1
 10
4.967444
 20
11.613344
 30
0.0
 10
5.013316
 20
11.669837
 30
0.0
 10
5.047379
 20
11.707755
 30
0.0
 10
5.092010
 20
11.762227
 30
0.0
  0
LWPOLYLINE
  5
133
100
AcDbEntity
  8
Red
 62
1
100
AcDbPolyline
 90
1
 70
1
 10
7.486868
 20
11.056513
 30
0.0
  0
SPLINE
  5
134
100
AcDbEntity
  8
Red
 62
1
100
AcDbSpline
 70
8
 71
3
 72
8
 73
4
 74
0
 40
0
 40
0
 40
0
 40
0
 40
1
 40
1
 40
1
 40
1
 10
6.900115
 20
11.762227
 30
0.0
 10
7.097322
 20
11.704752
 30
0.0
 10
7.302670
 20
11.617553
 30
0.0
 10
7.480831
 20
11.513177
 30
0.0
  0
SPLINE
  5
135
100
AcDbEntity
  8
Red
 62
1
100
AcDbSpline
 70
8
 71
3
 72
8
 73
4
 74
0
 40
0
 40
0
 40
0
 40
0
 40
1
 40
1
 40
1
 40
1
 10
7.480831
 20
11.513177
 30
0.0
 10
7.477390
 20
11.511413
 30
0.0
 10
7.466068
 20
11.515390
 30
0.0
 10
7.462068
 20
11.516276
 30
0.0
  0
SPLINE
  5
136
100
AcDbEntity
  8
Red
 62
1
100
AcDbSpline
 70
8
 71
3
 72
8
 73
4
 74
0
 40
0
 40
0
 40
0
 40
0
 40
1
 40
1
 40
1
 40
1
 10
7.462068
 20
11.516276
 30
0.0
 10
7.318369
 20
11.548076
 30
0.0
 10
7.171894
 20
11.580147
 30
0.0
 10
7.024682
 20
11.613344
 30
0.0
  0
SPLINE
  5
137
100
AcDbEntity
  8
Red
 62
1
100
AcDbSpline
 70
8
 71
3
 72
8
 73
4
 74
0
 40
0
 40
0
 40
0
 40
0
 40
1
 40
1
 40
1
 40
1
 10
7.024682
 20
11.613344
 30
0.0
 10
6.978810
 20
11.669837
 30
0.0
 10
6.944747
 20
11.707755
 30
0.0
 10
6.900115
 20
11.762227
 30
0.0
  0
LWPOLYLINE
  5
138
100
AcDbEntity
  8
Red
 62
1
100
AcDbPolyline
 90
1
 70
1
 10
5.092010
 20
11.762227
 30
0.0
  0
SPLINE
  5
139
100
AcDbEntity
  8
Red
 62
1
100
AcDbSpline
 70
8
 71
3
 72
8
 73
4
 74
0
 40
0
 40
0
 40
0
 40
0
 40
1
 40
1
 40
1
 40
1
 10
5.996063
 20
11.776592
 30
0.0
 10
5.839533
 20
11.776553
 30
0.0
 10
5.693567
 20
11.744117
 30
0.0
 10
5.540591
 20
11.719066
 30
0.0
  0
SPLINE
  5
13a
100
AcDbEntity
  8
Red
 62
1
100
AcDbSpline
 70
8
 71
3
 72
8
 73
4
 74
0
 40
0
 40
0
 40
0
 40
0
 40
1
 40
1
 40
1
 40
1
 10
5.540591
 20
11.719066
 30
0.0
 10
5.465101
 20
11.706704
 30
0.0
 10
5.391861
 20
11.696439
 30
0.0
 10
5.320165
 20
11.677674
 30
0.0
  0
SPLINE
  5
13b
100
AcDbEntity
  8
Red
 62
1
100
AcDbSpline
 70
8
 71
3
 72
8
 73
4
 74
0
 40
0
 40
0
 40
0
 40
0
 40
1
 40
1
 40
1
 40
1
 10
5.320165
 20
11.677674
 30
0.0
 10
5.408364
 20
11.738991
 30
0.0
 10
5.508116
 20
11.791542
 30
0.0
 10
5.625084
 20
11.822735
 30
0.0
  0
SPLINE
  5
13c
100
AcDbEntity
  8
Red
 62
1
100
AcDbSpline
 70
8
 71
3
 72
8
 73
4
 74
0
 40
0
 40
0
 40
0
 40
0
 40
1
 40
1
 40
1
 40
1
 10
5.625084
 20
11.822735
 30
0.0
 10
5.726783
 20
11.849856
 30
0.0
 10
5.877140
 20
11.885955
 30
0.0
 10
5.996063
 20
11.887793
 30
0.0
  0
SPLINE
  5
13d
100
AcDbEntity
  8
Red
 62
1
100
AcDbSpline
 70
8
 71
3
 72
8
 73
4
 74
0
 40
0
 40
0
 40
0
 40
0
 40
1
 40
1
 40
1
 40
1
 10
5.996063
 20
11.887793
 30
0.0
 10
6.114986
 20
11.885955
 30
0.0
 10
6.265343
 20
11.849856
 30
0.0
 10
6.367042
 20
11.822735
 30
0.0
  0
SPLINE
  5
13e
100
AcDbEntity
  8
Red
 62
1
100
AcDbSpline
 70
8
 71
3
 72
8
 73
4
 74
0
 40
0
 40
0
 40
0
 40
0
 40
1
 40
1
 40
1
 40
1
 10
6.367042
 20
11.822735
 30
0.0
 10
6.484010
 20
11.791542
 30
0.0
 10
6.583761
 20
11.738991
 30
0.0
 10
6.671961
 20
11.677674
 30
0.0
  0
SPLINE
  5
13f
100
AcDbEntity
  8
Red
 62
1
100
AcDbSpline
 70
8
 71
3
 72
8
 73
4
 74
0
 40
0
 40
0
 40
0
 40
0
 40
1
 40
1
 40
1
 40
1
 10
6.671961
 20
11.677674
 30
0.0
 10
6.600265
 20
11.696439
 30
0.0
 10
6.527024
 20
11.706704
 30
0.0
 10
6.451535
 20
11.719066
 30
0.0
  0
SPLINE
  5
140
100
AcDbEntity
  8
Red
 62
1
100
AcDbSpline
 70
8
 71
3
 72
8
 73
4
 74
0
 40
0
 40
0
 40
0
 40
0
 40
1
 40
1
 40
1
 40
1
 10
6.451535
 20
11.719066
 30
0.0
 10
6.298559
 20
11.744117
 30
0.0
 10
6.152593
 20
11.776553
 30
0.0
 10
5.996063
 20
11.776592
 30
0.0
  0
LWPOLYLINE
  5
141
100
AcDbEntity
  8
Red
 62
1
100
AcDbPolyline
 90
1
 70
1
 10
6.900115
 20
11.762227
 30
0.0
  0
SPLINE
  5
142
100
AcDbEntity
  8
Red
 62
1
100
AcDbSpline
 70
8
 71
3
 72
8
 73
4
 74
0
 40
0
 40
0
 40
0
 40
0
 40
1
 40
1
 40
1
 40
1
 10
5.021357
 20
11.344976
 30
0.0
 10
5.021357
 20
11.344976
 30
0.0
 10
5.043562
 20
11.379809
 30
0.0
 10
5.061568
 20
11.381331
 30
0.0
  0
SPLINE
  5
143
100
AcDbEntity
  8
Red
 62
1
100
AcDbSpline
 70
8
 71
3
 72
8
 73
4
 74
0
 40
0
 40
0
 40
0
 40
0
 40
1
 40
1
 40
1
 40
1
 10
5.061568
 20
11.381331
 30
0.0
 10
5.255287
 20
11.397706
 30
0.0
 10
5.520223
 20
11.403745
 30
0.0
 10
5.553713
 20
11.068361
 30
0.0
  0
SPLINE
  5
144
100
AcDbEntity
  8
Red
 62
1
100
AcDbSpline
 70
8
 71
3
 72
8
 73
4
 74
0
 40
0
 40
0
 40
0
 40
0
 40
1
 40
1
 40
1
 40
1
 10
5.553713
 20
11.068361
 30
0.0
 10
5.519082
 20
10.621746
 30
0.0
 10
5.187934
 20
10.252274
 30
0.0
 10
5.232087
 20
9.787332
 30
0.0
  0
SPLINE
  5
145
100
AcDbEntity
  8
Red
 62
1
100
AcDbSpline
 70
8
 71
3
 72
8
 73
4
 74
0
 40
0
 40
0
 40
0
 40
0
 40
1
 40
1
 40
1
 40
1
 10
5.232087
 20
9.787332
 30
0.0
 10
5.226235
 20
9.459748
 30
0.0
 10
5.318176
 20
9.138310
 30
0.0
 10
5.473408
 20
8.849379
 30
0.0
  0
SPLINE
  5
146
100
AcDbEntity
  8
Red
 62
1
100
AcDbSpline
 70
8
 71
3
 72
8
 73
4
 74
0
 40
0
 40
0
 40
0
 40
0
 40
1
 40
1
 40
1
 40
1
 10
5.473408
 20
8.849379
 30
0.0
 10
5.511619
 20
8.778257
 30
0.0
 10
5.549601
 20
8.717549
 30
0.0
 10
5.570986
 20
8.666400
 30
0.0
  0
SPLINE
  5
147
100
AcDbEntity
  8
Red
 62
1
100
AcDbSpline
 70
8
 71
3
 72
8
 73
4
 74
0
 40
0
 40
0
 40
0
 40
0
 40
1
 40
1
 40
1
 40
1
 10
5.570986
 20
8.666400
 30
0.0
 10
5.526933
 20
8.699709
 30
0.0
 10
5.462962
 20
8.788652
 30
0.0
 10
5.447755
 20
8.809285
 30
0.0
  0
SPLINE
  5
148
100
AcDbEntity
  8
Red
 62
1
100
AcDbSpline
 70
8
 71
3
 72
8
 73
4
 74
0
 40
0
 40
0
 40
0
 40
0
 40
1
 40
1
 40
1
 40
1
 10
5.447755
 20
8.809285
 30
0.0
 10
5.134674
 20
9.234081
 30
0.0
 10
4.606590
 20
9.478370
 30
0.0
 10
4.380664
 20
9.963769
 30
0.0
  0
SPLINE
  5
149
100
AcDbEntity
  8
Red
 62
1
100
AcDbSpline
 70
8
 71
3
 72
8
 73
4
 74
0
 40
0
 40
0
 40
0
 40
0
 40
1
 40
1
 40
1
 40
1
 10
4.380664
 20
9.963769
 30
0.0
 10
4.256455
 20
10.519453
 30
0.0
 10
4.706632
 20
10.934376
 30
0.0
 10
5.021357
 20
11.344976
 30
0.0
  0
SPLINE
  5
14a
100
AcDbEntity
  8
Red
 62
1
100
AcDbSpline
 70
8
 71
3
 72
8
 73
4
 74
0
 40
0
 40
0
 40
0
 40
0
 40
1
 40
1
 40
1
 40
1
 10
6.970769
 20
11.344976
 30
0.0
 10
6.970769
 20
11.344976
 30
0.0
 10
6.948563
 20
11.379809
 30
0.0
 10
6.930558
 20
11.381331
 30
0.0
  0
SPLINE
  5
14b
100
AcDbEntity
  8
Red
 62
1
100
AcDbSpline
 70
8
 71
3
 72
8
 73
4
 74
0
 40
0
 40
0
 40
0
 40
0
 40
1
 40
1
 40
1
 40
1
 10
6.930558
 20
11.381331
 30
0.0
 10
6.736838
 20
11.397706
 30
0.0
 10
6.471902
 20
11.403745
 30
0.0
 10
6.438412
 20
11.068361
 30
0.0
  0
SPLINE
  5
14c
100
AcDbEntity
  8
Red
 62
1
100
AcDbSpline
 70
8
 71
3
 72
8
 73
4
 74
0
 40
0
 40
0
 40
0
 40
0
 40
1
 40
1
 40
1
 40
1
 10
6.438412
 20
11.068361
 30
0.0
 10
6.473043
 20
10.621746
 30
0.0
 10
6.804192
 20
10.252274
 30
0.0
 10
6.760039
 20
9.787332
 30
0.0
  0
SPLINE
  5
14d
100
AcDbEntity
  8
Red
 62
1
100
AcDbSpline
 70
8
 71
3
 72
8
 73
4
 74
0
 40
0
 40
0
 40
0
 40
0
 40
1
 40
1
 40
1
 40
1
 10
6.760039
 20
9.787332
 30
0.0
 10
6.765890
 20
9.459748
 30
0.0
 10
6.673950
 20
9.138310
 30
0.0
 10
6.518718
 20
8.849379
 30
0.0
  0
SPLINE
  5
14e
100
AcDbEntity
  8
Red
 62
1
100
AcDbSpline
 70
8
 71
3
 72
8
 73
4
 74
0
 40
0
 40
0
 40
0
 40
0
 40
1
 40
1
 40
1
 40
1
 10
6.518718
 20
8.849379
 30
0.0
 10
6.480506
 20
8.778257
 30
0.0
 10
6.442525
 20
8.717549
 30
0.0
 10
6.421140
 20
8.666400
 30
0.0
  0
SPLINE
  5
14f
100
AcDbEntity
  8
Red
 62
1
100
AcDbSpline
 70
8
 71
3
 72
8
 73
4
 74
0
 40
0
 40
0
 40
0
 40
0
 40
1
 40
1
 40
1
 40
1
 10
6.421140
 20
8.666400
 30
0.0
 10
6.465193
 20
8.699709
 30
0.0
 10
6.529164
 20
8.788652
 30
0.0
 10
6.544371
 20
8.809285
 30
0.0
  0
SPLINE
  5
150
100
AcDbEntity
  8
Red
 62
1
100
AcDbSpline
 70
8
 71
3
 72
8
 73
4
 74
0
 40
0
 40
0
 40
0
 40
0
 40
1
 40
1
 40
1
 40
1
 10
6.544371
 20
8.809285
 30
0.0
 10
6.857451
 20
9.234081
 30
0.0
 10
7.385536
 20
9.478370
 30
0.0
 10
7.611462
 20
9.963769
 30
0.0
  0
SPLINE
  5
151
100
AcDbEntity
  8
Red
 62
1
100
AcDbSpline
 70
8
 71
3
 72
8
 73
4
 74
0
 40
0
 40
0
 40
0
 40
0
 40
1
 40
1
 40
1
 40
1
 10
7.611462
 20
9.963769
 30
0.0
 10
7.735670
 20
10.519453
 30
0.0
 10
7.285493
 20
10.934376
 30
0.0
 10
6.970769
 20
11.344976
 30
0.0
  0
SPLINE
  5
152
100
AcDbEntity
  8
Red
 62
1
100
AcDbSpline
 70
8
 71
3
 72
8
 73
4
 74
0
 40
0
 40
0
 40
0
 40
0
 40
1
 40
1
 40
1
 40
1
 10
5.996063
 20
11.646155
 30
0.0
 10
5.828330
 20
11.646481
 30
0.0
 10
5.657478
 20
11.601424
 30
0.0
 10
5.494694
 20
11.558850
 30
0.0
  0
SPLINE
  5
153
100
AcDbEntity
  8
Red
 62
1
100
AcDbSpline
 70
8
 71
3
 72
8
 73
4
 74
0
 40
0
 40
0
 40
0
 40
0
 40
1
 40
1
 40
1
 40
1
 10
5.494694
 20
11.558850
 30
0.0
 10
5.584269
 20
11.520733
 30
0.0
 10
5.669942
 20
11.465914
 30
0.0
 10
5.733801
 20
11.392764
 30
0.0
  0
SPLINE
  5
154
100
AcDbEntity
  8
Red
 62
1
100
AcDbSpline
 70
8
 71
3
 72
8
 73
4
 74
0
 40
0
 40
0
 40
0
 40
0
 40
1
 40
1
 40
1
 40
1
 10
5.733801
 20
11.392764
 30
0.0
 10
6.000999
 20
10.954420
 30
0.0
 10
5.510959
 20
10.483901
 30
0.0
 10
5.520848
 20
10.019543
 30
0.0
  0
SPLINE
  5
155
100
AcDbEntity
  8
Red
 62
1
100
AcDbSpline
 70
8
 71
3
 72
8
 73
4
 74
0
 40
0
 40
0
 40
0
 40
0
 40
1
 40
1
 40
1
 40
1
 10
5.520848
 20
10.019543
 30
0.0
 10
5.519517
 20
9.567699
 30
0.0
 10
5.458516
 20
8.914647
 30
0.0
 10
5.996063
 20
8.749754
 30
0.0
  0
SPLINE
  5
156
100
AcDbEntity
  8
Red
 62
1
100
AcDbSpline
 70
8
 71
3
 72
8
 73
4
 74
0
 40
0
 40
0
 40
0
 40
0
 40
1
 40
1
 40
1
 40
1
 10
5.996063
 20
8.749754
 30
0.0
 10
6.533610
 20
8.914647
 30
0.0
 10
6.472608
 20
9.567699
 30
0.0
 10
6.471278
 20
10.019543
 30
0.0
  0
SPLINE
  5
157
100
AcDbEntity
  8
Red
 62
1
100
AcDbSpline
 70
8
 71
3
 72
8
 73
4
 74
0
 40
0
 40
0
 40
0
 40
0
 40
1
 40
1
 40
1
 40
1
 10
6.471278
 20
10.019543
 30
0.0
 10
6.481166
 20
10.483901
 30
0.0
 10
5.991127
 20
10.954420
 30
0.0
 10
6.258324
 20
11.392764
 30
0.0
  0
SPLINE
  5
158
100
AcDbEntity
  8
Red
 62
1
100
AcDbSpline
 70
8
 71
3
 72
8
 73
4
 74
0
 40
0
 40
0
 40
0
 40
0
 40
1
 40
1
 40
1
 40
1
 10
6.258324
 20
11.392764
 30
0.0
 10
6.322184
 20
11.465914
 30
0.0
 10
6.407856
 20
11.520733
 30
0.0
 10
6.497432
 20
11.558850
 30
0.0
  0
SPLINE
  5
159
100
AcDbEntity
  8
Red
 62
1
100
AcDbSpline
 70
8
 71
3
 72
8
 73
4
 74
0
 40
0
 40
0
 40
0
 40
0
 40
1
 40
1
 40
1
 40
1
 10
6.497432
 20
11.558850
 30
0.0
 10
6.334647
 20
11.601424
 30
0.0
 10
6.163796
 20
11.646481
 30
0.0
 10
5.996063
 20
11.646155
 30
0.0
  0
LWPOLYLINE
  5
15a
100
AcDbEntity
  8
Red
 62
1
100
AcDbPolyline
 90
1
 70
1
 10
5.996063
 20
11.776592
 30
0.0
  0
SPLINE
  5
15b
100
AcDbEntity
  8
Red
 62
1
100
AcDbSpline
 70
8
 71
3
 72
8
 73
4
 74
0
 40
0
 40
0
 40
0
 40
0
 40
1
 40
1
 40
1
 40
1
 10
5.448542
 20
5.699400
 30
0.0
 10
5.382446
 20
4.687273
 30
0.0
 10
4.887516
 20
3.731526
 30
0.0
 10
4.166978
 20
3.030957
 30
0.0
  0
SPLINE
  5
15c
100
AcDbEntity
  8
Red
 62
1
100
AcDbSpline
 70
8
 71
3
 72
8
 73
4
 74
0
 40
0
 40
0
 40
0
 40
0
 40
1
 40
1
 40
1
 40
1
 10
4.166978
 20
3.030957
 30
0.0
 10
3.644911
 20
2.724175
 30
0.0
 10
2.983215
 20
2.796444
 30
0.0
 10
2.399856
 20
2.826113
 30
0.0
  0
SPLINE
  5
15d
100
AcDbEntity
  8
Red
 62
1
100
AcDbSpline
 70
8
 71
3
 72
8
 73
4
 74
0
 40
0
 40
0
 40
0
 40
0
 40
1
 40
1
 40
1
 40
1
 10
2.399856
 20
2.826113
 30
0.0
 10
1.853882
 20
2.883168
 30
0.0
 10
1.435573
 20
3.312703
 30
0.0
 10
1.076757
 20
3.690539
 30
0.0
  0
SPLINE
  5
15e
100
AcDbEntity
  8
Red
 62
1
100
AcDbSpline
 70
8
 71
3
 72
8
 73
4
 74
0
 40
0
 40
0
 40
0
 40
0
 40
1
 40
1
 40
1
 40
1
 10
1.076757
 20
3.690539
 30
0.0
 10
0.747592
 20
4.179880
 30
0.0
 10
1.187901
 20
4.746544
 30
0.0
 10
1.185856
 20
5.276415
 30
0.0
  0
SPLINE
  5
15f
100
AcDbEntity
  8
Red
 62
1
100
AcDbSpline
 70
8
 71
3
 72
8
 73
4
 74
0
 40
0
 40
0
 40
0
 40
0
 40
1
 40
1
 40
1
 40
1
 10
1.185856
 20
5.276415
 30
0.0
 10
1.184011
 20
5.754713
 30
0.0
 10
1.222363
 20
6.236046
 30
0.0
 10
1.076333
 20
6.707135
 30
0.0
  0
SPLINE
  5
160
100
AcDbEntity
  8
Red
 62
1
100
AcDbSpline
 70
8
 71
3
 72
8
 73
4
 74
0
 40
0
 40
0
 40
0
 40
0
 40
1
 40
1
 40
1
 40
1
 10
1.076333
 20
6.707135
 30
0.0
 10
1.232876
 20
6.723165
 30
0.0
 10
1.377059
 20
6.733727
 30
0.0
 10
1.519669
 20
6.716274
 30
0.0
  0
SPLINE
  5
161
100
AcDbEntity
  8
Red
 62
1
100
AcDbSpline
 70
8
 71
3
 72
8
 73
4
 74
0
 40
0
 40
0
 40
0
 40
0
 40
1
 40
1
 40
1
 40
1
 10
1.519669
 20
6.716274
 30
0.0
 10
2.212932
 20
6.568873
 30
0.0
 10
2.778447
 20
6.105099
 30
0.0
 10
3.282701
 20
5.628614
 30
0.0
  0
SPLINE
  5
162
100
AcDbEntity
  8
Red
 62
1
100
AcDbSpline
 70
8
 71
3
 72
8
 73
4
 74
0
 40
0
 40
0
 40
0
 40
0
 40
1
 40
1
 40
1
 40
1
 10
3.282701
 20
5.628614
 30
0.0
 10
3.831400
 20
5.007002
 30
0.0
 10
4.972836
 20
4.968888
 30
0.0
 10
5.448698
 20
5.695928
 30
0.0
  0
SPLINE
  5
163
100
AcDbEntity
  8
Red
 62
1
100
AcDbSpline
 70
8
 71
3
 72
8
 73
4
 74
0
 40
0
 40
0
 40
0
 40
0
 40
1
 40
1
 40
1
 40
1
 10
6.543583
 20
5.699401
 30
0.0
 10
6.609679
 20
4.687274
 30
0.0
 10
7.104610
 20
3.731528
 30
0.0
 10
7.825148
 20
3.030958
 30
0.0
  0
SPLINE
  5
164
100
AcDbEntity
  8
Red
 62
1
100
AcDbSpline
 70
8
 71
3
 72
8
 73
4
 74
0
 40
0
 40
0
 40
0
 40
0
 40
1
 40
1
 40
1
 40
1
 10
7.825148
 20
3.030958
 30
0.0
 10
8.347214
 20
2.724176
 30
0.0
 10
9.008910
 20
2.796445
 30
0.0
 10
9.592270
 20
2.826115
 30
0.0
  0
SPLINE
  5
165
100
AcDbEntity
  8
Red
 62
1
100
AcDbSpline
 70
8
 71
3
 72
8
 73
4
 74
0
 40
0
 40
0
 40
0
 40
0
 40
1
 40
1
 40
1
 40
1
 10
9.592270
 20
2.826115
 30
0.0
 10
10.138244
 20
2.883169
 30
0.0
 10
10.556553
 20
3.312704
 30
0.0
 10
10.915369
 20
3.690540
 30
0.0
  0
SPLINE
  5
166
100
AcDbEntity
  8
Red
 62
1
100
AcDbSpline
 70
8
 71
3
 72
8
 73
4
 74
0
 40
0
 40
0
 40
0
 40
0
 40
1
 40
1
 40
1
 40
1
 10
10.915369
 20
3.690540
 30
0.0
 10
11.244533
 20
4.179881
 30
0.0
 10
10.804225
 20
4.746545
 30
0.0
 10
10.806269
 20
5.276416
 30
0.0
  0
SPLINE
  5
167
100
AcDbEntity
  8
Red
 62
1
100
AcDbSpline
 70
8
 71
3
 72
8
 73
4
 74
0
 40
0
 40
0
 40
0
 40
0
 40
1
 40
1
 40
1
 40
1
 10
10.806269
 20
5.276416
 30
0.0
 10
10.808116
 20
5.754715
 30
0.0
 10
10.769763
 20
6.236047
 30
0.0
 10
10.915792
 20
6.707137
 30
0.0
  0
SPLINE
  5
168
100
AcDbEntity
  8
Red
 62
1
100
AcDbSpline
 70
8
 71
3
 72
8
 73
4
 74
0
 40
0
 40
0
 40
0
 40
0
 40
1
 40
1
 40
1
 40
1
 10
10.915792
 20
6.707137
 30
0.0
 10
10.759249
 20
6.723166
 30
0.0
 10
10.615067
 20
6.733728
 30
0.0
 10
10.472456
 20
6.716275
 30
0.0
  0
SPLINE
  5
169
100
AcDbEntity
  8
Red
 62
1
100
AcDbSpline
 70
8
 71
3
 72
8
 73
4
 74
0
 40
0
 40
0
 40
0
 40
0
 40
1
 40
1
 40
1
 40
1
 10
10.472456
 20
6.716275
 30
0.0
 10
9.779194
 20
6.568874
 30
0.0
 10
9.213678
 20
6.105100
 30
0.0
 10
8.709425
 20
5.628615
 30
0.0
  0
SPLINE
  5
16a
100
AcDbEntity
  8
Red
 62
1
100
AcDbSpline
 70
8
 71
3
 72
8
 73
4
 74
0
 40
0
 40
0
 40
0
 40
0
 40
1
 40
1
 40
1
 40
1
 10
8.709425
 20
5.628615
 30
0.0
 10
8.160725
 20
5.007003
 30
0.0
 10
7.019290
 20
4.968889
 30
0.0
 10
6.543428
 20
5.695929
 30
0.0
  0
SPLINE
  5
16b
100
AcDbEntity
  8
Red
 62
1
100
AcDbSpline
 70
8
 71
3
 72
8
 73
4
 74
0
 40
0
 40
0
 40
0
 40
0
 40
1
 40
1
 40
1
 40
1
 10
1.820281
 20
6.868909
 30
0.0
 10
1.562171
 20
6.942631
 30
0.0
 10
1.293231
 20
6.941023
 30
0.0
 10
1.017495
 20
6.932442
 30
0.0
  0
SPLINE
  5
16c
100
AcDbEntity
  8
Red
 62
1
100
AcDbSpline
 70
8
 71
3
 72
8
 73
4
 74
0
 40
0
 40
0
 40
0
 40
0
 40
1
 40
1
 40
1
 40
1
 10
1.017495
 20
6.932442
 30
0.0
 10
1.010984
 20
6.953299
 30
0.0
 10
1.004691
 20
6.975349
 30
0.0
 10
0.998321
 20
6.992779
 30
0.0
  0
SPLINE
  5
16d
100
AcDbEntity
  8
Red
 62
1
100
AcDbSpline
 70
8
 71
3
 72
8
 73
4
 74
0
 40
0
 40
0
 40
0
 40
0
 40
1
 40
1
 40
1
 40
1
 10
0.998321
 20
6.992779
 30
0.0
 10
0.812489
 20
7.484266
 30
0.0
 10
1.122362
 20
7.966088
 30
0.0
 10
1.555615
 20
8.187549
 30
0.0
  0
SPLINE
  5
16e
100
AcDbEntity
  8
Red
 62
1
100
AcDbSpline
 70
8
 71
3
 72
8
 73
4
 74
0
 40
0
 40
0
 40
0
 40
0
 40
1
 40
1
 40
1
 40
1
 10
1.555615
 20
8.187549
 30
0.0
 10
2.225764
 20
8.563101
 30
0.0
 10
3.043452
 20
8.799671
 30
0.0
 10
3.800265
 20
8.554904
 30
0.0
  0
SPLINE
  5
16f
100
AcDbEntity
  8
Red
 62
1
100
AcDbSpline
 70
8
 71
3
 72
8
 73
4
 74
0
 40
0
 40
0
 40
0
 40
0
 40
1
 40
1
 40
1
 40
1
 10
3.800265
 20
8.554904
 30
0.0
 10
4.197008
 20
8.438719
 30
0.0
 10
4.566422
 20
8.234876
 30
0.0
 10
4.883728
 20
7.970735
 30
0.0
  0
LWPOLYLINE
  5
170
100
AcDbEntity
  8
Red
 62
1
100
AcDbPolyline
 90
1
 70
1
 10
5.996063
 20
11.646155
 30
0.0
  0
SPLINE
  5
171
100
AcDbEntity
  8
Red
 62
1
100
AcDbSpline
 70
8
 71
3
 72
8
 73
4
 74
0
 40
0
 40
0
 40
0
 40
0
 40
1
 40
1
 40
1
 40
1
 10
4.877015
 20
7.972470
 30
0.0
 10
4.049674
 20
8.157858
 30
0.0
 10
4.294403
 20
7.476031
 30
0.0
 10
4.038696
 20
7.287906
 30
0.0
  0
SPLINE
  5
172
100
AcDbEntity
  8
Red
 62
1
100
AcDbSpline
 70
8
 71
3
 72
8
 73
4
 74
0
 40
0
 40
0
 40
0
 40
0
 40
1
 40
1
 40
1
 40
1
 10
4.038696
 20
7.287906
 30
0.0
 10
3.877874
 20
7.430957
 30
0.0
 10
3.547286
 20
7.021361
 30
0.0
 10
3.595300
 20
6.698661
 30
0.0
  0
LWPOLYLINE
  5
173
100
AcDbEntity
  8
Red
 62
1
100
AcDbPolyline
 90
2
 70
0
 10
4.883728
 20
7.970735
 30
0.0
 10
4.877015
 20
7.972470
 30
0.0
  0
SPLINE
  5
174
100
AcDbEntity
  8
Red
 62
1
100
AcDbSpline
 70
8
 71
3
 72
8
 73
4
 74
0
 40
0
 40
0
 40
0
 40
0
 40
1
 40
1
 40
1
 40
1
 10
3.600788
 20
6.688244
 30
0.0
 10
3.759155
 20
6.884381
 30
0.0
 10
4.134637
 20
6.878763
 30
0.0
 10
4.167891
 20
7.183175
 30
0.0
  0
LWPOLYLINE
  5
175
100
AcDbEntity
  8
Red
 62
1
100
AcDbPolyline
 90
2
 70
0
 10
3.595300
 20
6.698661
 30
0.0
 10
3.600788
 20
6.688244
 30
0.0
  0
SPLINE
  5
176
100
AcDbEntity
  8
Red
 62
1
100
AcDbSpline
 70
8
 71
3
 72
8
 73
4
 74
0
 40
0
 40
0
 40
0
 40
0
 40
1
 40
1
 40
1
 40
1
 10
4.171186
 20
7.185758
 30
0.0
 10
4.227151
 20
7.119574
 30
0.0
 10
4.277867
 20
6.532506
 30
0.0
 10
5.088587
 20
6.735862
 30
0.0
  0
LWPOLYLINE
  5
177
100
AcDbEntity
  8
Red
 62
1
100
AcDbPolyline
 90
2
 70
0
 10
4.167891
 20
7.183175
 30
0.0
 10
4.171186
 20
7.185758
 30
0.0
  0
SPLINE
  5
178
100
AcDbEntity
  8
Red
 62
1
100
AcDbSpline
 70
8
 71
3
 72
8
 73
4
 74
0
 40
0
 40
0
 40
0
 40
0
 40
1
 40
1
 40
1
 40
1
 10
5.115287
 20
6.742768
 30
0.0
 10
4.658201
 20
7.370267
 30
0.0
 10
4.390007
 20
7.250000
 30
0.0
 10
4.304945
 20
7.217283
 30
0.0
  0
SPLINE
  5
179
100
AcDbEntity
  8
Red
 62
1
100
AcDbSpline
 70
8
 71
3
 72
8
 73
4
 74
0
 40
0
 40
0
 40
0
 40
0
 40
1
 40
1
 40
1
 40
1
 10
4.304945
 20
7.217283
 30
0.0
 10
4.244613
 20
7.194078
 30
0.0
 10
4.284595
 20
7.305678
 30
0.0
 10
4.326411
 20
7.467692
 30
0.0
  0
SPLINE
  5
17a
100
AcDbEntity
  8
Red
 62
1
100
AcDbSpline
 70
8
 71
3
 72
8
 73
4
 74
0
 40
0
 40
0
 40
0
 40
0
 40
1
 40
1
 40
1
 40
1
 10
4.326411
 20
7.467692
 30
0.0
 10
4.490541
 20
8.089362
 30
0.0
 10
5.321920
 20
7.825287
 30
0.0
 10
5.394352
 20
7.272348
 30
0.0
  0
SPLINE
  5
17b
100
AcDbEntity
  8
Red
 62
1
100
AcDbSpline
 70
8
 71
3
 72
8
 73
4
 74
0
 40
0
 40
0
 40
0
 40
0
 40
1
 40
1
 40
1
 40
1
 10
5.394352
 20
7.272348
 30
0.0
 10
5.517205
 20
6.730224
 30
0.0
 10
5.536398
 20
6.028009
 30
0.0
 10
5.028246
 20
5.669038
 30
0.0
  0
SPLINE
  5
17c
100
AcDbEntity
  8
Red
 62
1
100
AcDbSpline
 70
8
 71
3
 72
8
 73
4
 74
0
 40
0
 40
0
 40
0
 40
0
 40
1
 40
1
 40
1
 40
1
 10
5.028246
 20
5.669038
 30
0.0
 10
4.481615
 20
5.310341
 30
0.0
 10
3.803085
 20
5.627163
 30
0.0
 10
3.321625
 20
5.952478
 30
0.0
  0
SPLINE
  5
17d
100
AcDbEntity
  8
Red
 62
1
100
AcDbSpline
 70
8
 71
3
 72
8
 73
4
 74
0
 40
0
 40
0
 40
0
 40
0
 40
1
 40
1
 40
1
 40
1
 10
3.321625
 20
5.952478
 30
0.0
 10
2.960050
 20
6.216490
 30
0.0
 10
2.331868
 20
6.501909
 30
0.0
 10
2.543003
 20
7.051100
 30
0.0
  0
SPLINE
  5
17e
100
AcDbEntity
  8
Red
 62
1
100
AcDbSpline
 70
8
 71
3
 72
8
 73
4
 74
0
 40
0
 40
0
 40
0
 40
0
 40
1
 40
1
 40
1
 40
1
 10
2.543003
 20
7.051100
 30
0.0
 10
2.635977
 20
7.280736
 30
0.0
 10
3.031855
 20
7.248568
 30
0.0
 10
3.166357
 20
7.060083
 30
0.0
  0
SPLINE
  5
17f
100
AcDbEntity
  8
Red
 62
1
100
AcDbSpline
 70
8
 71
3
 72
8
 73
4
 74
0
 40
0
 40
0
 40
0
 40
0
 40
1
 40
1
 40
1
 40
1
 10
3.166357
 20
7.060083
 30
0.0
 10
3.132143
 20
6.851690
 30
0.0
 10
3.150582
 20
6.591874
 30
0.0
 10
3.395616
 20
6.482143
 30
0.0
  0
SPLINE
  5
180
100
AcDbEntity
  8
Red
 62
1
100
AcDbSpline
 70
8
 71
3
 72
8
 73
4
 74
0
 40
0
 40
0
 40
0
 40
0
 40
1
 40
1
 40
1
 40
1
 10
3.395616
 20
6.482143
 30
0.0
 10
3.571117
 20
6.676237
 30
0.0
 10
3.535922
 20
6.921009
 30
0.0
 10
3.402183
 20
7.104061
 30
0.0
  0
SPLINE
  5
181
100
AcDbEntity
  8
Red
 62
1
100
AcDbSpline
 70
8
 71
3
 72
8
 73
4
 74
0
 40
0
 40
0
 40
0
 40
0
 40
1
 40
1
 40
1
 40
1
 10
3.402183
 20
7.104061
 30
0.0
 10
3.268444
 20
7.287113
 30
0.0
 10
3.033558
 20
7.403806
 30
0.0
 10
2.803727
 20
7.357799
 30
0.0
  0
SPLINE
  5
182
100
AcDbEntity
  8
Red
 62
1
100
AcDbSpline
 70
8
 71
3
 72
8
 73
4
 74
0
 40
0
 40
0
 40
0
 40
0
 40
1
 40
1
 40
1
 40
1
 10
2.803727
 20
7.357799
 30
0.0
 10
2.802057
 20
7.360807
 30
0.0
 10
2.802991
 20
7.361103
 30
0.0
 10
2.803923
 20
7.361418
 30
0.0
  0
SPLINE
  5
183
100
AcDbEntity
  8
Red
 62
1
100
AcDbSpline
 70
8
 71
3
 72
8
 73
4
 74
0
 40
0
 40
0
 40
0
 40
0
 40
1
 40
1
 40
1
 40
1
 10
2.803923
 20
7.361418
 30
0.0
 10
3.014798
 20
7.432318
 30
0.0
 10
3.195513
 20
7.779360
 30
0.0
 10
3.321955
 20
7.777159
 30
0.0
  0
SPLINE
  5
184
100
AcDbEntity
  8
Red
 62
1
100
AcDbSpline
 70
8
 71
3
 72
8
 73
4
 74
0
 40
0
 40
0
 40
0
 40
0
 40
1
 40
1
 40
1
 40
1
 10
3.321955
 20
7.777159
 30
0.0
 10
3.363904
 20
7.758768
 30
0.0
 10
3.380975
 20
7.741942
 30
0.0
 10
3.392573
 20
7.716903
 30
0.0
  0
SPLINE
  5
185
100
AcDbEntity
  8
Red
 62
1
100
AcDbSpline
 70
8
 71
3
 72
8
 73
4
 74
0
 40
0
 40
0
 40
0
 40
0
 40
1
 40
1
 40
1
 40
1
 10
3.392573
 20
7.716903
 30
0.0
 10
3.408223
 20
7.683114
 30
0.0
 10
3.448783
 20
7.659239
 30
0.0
 10
3.498725
 20
7.649635
 30
0.0
  0
SPLINE
  5
186
100
AcDbEntity
  8
Red
 62
1
100
AcDbSpline
 70
8
 71
3
 72
8
 73
4
 74
0
 40
0
 40
0
 40
0
 40
0
 40
1
 40
1
 40
1
 40
1
 10
3.498725
 20
7.649635
 30
0.0
 10
3.577221
 20
7.634541
 30
0.0
 10
3.786239
 20
7.671196
 30
0.0
 10
3.853949
 20
7.736236
 30
0.0
  0
LWPOLYLINE
  5
187
100
AcDbEntity
  8
Red
 62
1
100
AcDbPolyline
 90
2
 70
0
 10
5.088587
 20
6.735862
 30
0.0
 10
5.115287
 20
6.742768
 30
0.0
  0
SPLINE
  5
188
100
AcDbEntity
  8
Red
 62
1
100
AcDbSpline
 70
8
 71
3
 72
8
 73
4
 74
0
 40
0
 40
0
 40
0
 40
0
 40
1
 40
1
 40
1
 40
1
 10
3.857669
 20
7.738099
 30
0.0
 10
3.693163
 20
7.804790
 30
0.0
 10
3.673818
 20
7.873146
 30
0.0
 10
3.620120
 20
7.977310
 30
0.0
  0
SPLINE
  5
189
100
AcDbEntity
  8
Red
 62
1
100
AcDbSpline
 70
8
 71
3
 72
8
 73
4
 74
0
 40
0
 40
0
 40
0
 40
0
 40
1
 40
1
 40
1
 40
1
 10
3.620120
 20
7.977310
 30
0.0
 10
3.555418
 20
8.102819
 30
0.0
 10
3.355357
 20
8.036197
 30
0.0
 10
3.265740
 20
7.868266
 30
0.0
  0
LWPOLYLINE
  5
18a
100
AcDbEntity
  8
Red
 62
1
100
AcDbPolyline
 90
2
 70
0
 10
3.853949
 20
7.736236
 30
0.0
 10
3.857669
 20
7.738099
 30
0.0
  0
SPLINE
  5
18b
100
AcDbEntity
  8
Red
 62
1
100
AcDbSpline
 70
8
 71
3
 72
8
 73
4
 74
0
 40
0
 40
0
 40
0
 40
0
 40
1
 40
1
 40
1
 40
1
 10
3.270436
 20
7.870096
 30
0.0
 10
3.029511
 20
7.788010
 30
0.0
 10
2.671629
 20
7.430906
 30
0.0
 10
2.667179
 20
7.464752
 30
0.0
  0
LWPOLYLINE
  5
18c
100
AcDbEntity
  8
Red
 62
1
100
AcDbPolyline
 90
2
 70
0
 10
3.265740
 20
7.868266
 30
0.0
 10
3.270436
 20
7.870096
 30
0.0
  0
SPLINE
  5
18d
100
AcDbEntity
  8
Red
 62
1
100
AcDbSpline
 70
8
 71
3
 72
8
 73
4
 74
0
 40
0
 40
0
 40
0
 40
0
 40
1
 40
1
 40
1
 40
1
 10
2.673230
 20
7.479666
 30
0.0
 10
2.699501
 20
7.627296
 30
0.0
 10
2.648457
 20
7.775356
 30
0.0
 10
2.568795
 20
7.902339
 30
0.0
  0
LWPOLYLINE
  5
18e
100
AcDbEntity
  8
Red
 62
1
100
AcDbPolyline
 90
2
 70
0
 10
2.667179
 20
7.464752
 30
0.0
 10
2.673230
 20
7.479666
 30
0.0
  0
SPLINE
  5
18f
100
AcDbEntity
  8
Red
 62
1
100
AcDbSpline
 70
8
 71
3
 72
8
 73
4
 74
0
 40
0
 40
0
 40
0
 40
0
 40
1
 40
1
 40
1
 40
1
 10
2.566362
 20
7.906811
 30
0.0
 10
2.703905
 20
8.190685
 30
0.0
 10
2.334915
 20
8.392199
 30
0.0
 10
2.095812
 20
8.359867
 30
0.0
  0
SPLINE
  5
190
100
AcDbEntity
  8
Red
 62
1
100
AcDbSpline
 70
8
 71
3
 72
8
 73
4
 74
0
 40
0
 40
0
 40
0
 40
0
 40
1
 40
1
 40
1
 40
1
 10
2.095812
 20
8.359867
 30
0.0
 10
2.306036
 20
8.247568
 30
0.0
 10
2.061687
 20
7.819496
 30
0.0
 10
2.425414
 20
7.858758
 30
0.0
  0
LWPOLYLINE
  5
191
100
AcDbEntity
  8
Red
 62
1
100
AcDbPolyline
 90
2
 70
0
 10
2.568795
 20
7.902339
 30
0.0
 10
2.566362
 20
7.906811
 30
0.0
  0
SPLINE
  5
192
100
AcDbEntity
  8
Red
 62
1
100
AcDbSpline
 70
8
 71
3
 72
8
 73
4
 74
0
 40
0
 40
0
 40
0
 40
0
 40
1
 40
1
 40
1
 40
1
 10
2.427965
 20
7.850484
 30
0.0
 10
2.469178
 20
7.709826
 30
0.0
 10
2.497388
 20
7.574733
 30
0.0
 10
2.487348
 20
7.426359
 30
0.0
  0
SPLINE
  5
193
100
AcDbEntity
  8
Red
 62
1
100
AcDbSpline
 70
8
 71
3
 72
8
 73
4
 74
0
 40
0
 40
0
 40
0
 40
0
 40
1
 40
1
 40
1
 40
1
 10
2.487348
 20
7.426359
 30
0.0
 10
2.396603
 20
7.253175
 30
0.0
 10
2.258043
 20
7.008512
 30
0.0
 10
2.283469
 20
6.802501
 30
0.0
  0
SPLINE
  5
194
100
AcDbEntity
  8
Red
 62
1
100
AcDbSpline
 70
8
 71
3
 72
8
 73
4
 74
0
 40
0
 40
0
 40
0
 40
0
 40
1
 40
1
 40
1
 40
1
 10
2.283469
 20
6.802501
 30
0.0
 10
2.291773
 20
6.735220
 30
0.0
 10
2.317568
 20
6.672062
 30
0.0
 10
2.368914
 20
6.611453
 30
0.0
  0
SPLINE
  5
195
100
AcDbEntity
  8
Red
 62
1
100
AcDbSpline
 70
8
 71
3
 72
8
 73
4
 74
0
 40
0
 40
0
 40
0
 40
0
 40
1
 40
1
 40
1
 40
1
 10
2.368914
 20
6.611453
 30
0.0
 10
2.196756
 20
6.722844
 30
0.0
 10
2.017577
 20
6.812558
 30
0.0
 10
1.820281
 20
6.868909
 30
0.0
  0
LWPOLYLINE
  5
196
100
AcDbEntity
  8
Red
 62
1
100
AcDbPolyline
 90
2
 70
0
 10
2.425414
 20
7.858758
 30
0.0
 10
2.427965
 20
7.850484
 30
0.0
  0
SPLINE
  5
197
100
AcDbEntity
  8
Red
 62
1
100
AcDbSpline
 70
8
 71
3
 72
8
 73
4
 74
0
 40
0
 40
0
 40
0
 40
0
 40
1
 40
1
 40
1
 40
1
 10
10.171844
 20
6.868909
 30
0.0
 10
10.429955
 20
6.942631
 30
0.0
 10
10.698895
 20
6.941023
 30
0.0
 10
10.974631
 20
6.932442
 30
0.0
  0
SPLINE
  5
198
100
AcDbEntity
  8
Red
 62
1
100
AcDbSpline
 70
8
 71
3
 72
8
 73
4
 74
0
 40
0
 40
0
 40
0
 40
0
 40
1
 40
1
 40
1
 40
1
 10
10.974631
 20
6.932442
 30
0.0
 10
10.981142
 20
6.953299
 30
0.0
 10
10.987434
 20
6.975349
 30
0.0
 10
10.993804
 20
6.992779
 30
0.0
  0
SPLINE
  5
199
100
AcDbEntity
  8
Red
 62
1
100
AcDbSpline
 70
8
 71
3
 72
8
 73
4
 74
0
 40
0
 40
0
 40
0
 40
0
 40
1
 40
1
 40
1
 40
1
 10
10.993804
 20
6.992779
 30
0.0
 10
11.179637
 20
7.484266
 30
0.0
 10
10.869763
 20
7.966088
 30
0.0
 10
10.436511
 20
8.187549
 30
0.0
  0
SPLINE
  5
19a
100
AcDbEntity
  8
Red
 62
1
100
AcDbSpline
 70
8
 71
3
 72
8
 73
4
 74
0
 40
0
 40
0
 40
0
 40
0
 40
1
 40
1
 40
1
 40
1
 10
10.436511
 20
8.187549
 30
0.0
 10
9.766361
 20
8.563101
 30
0.0
 10
8.948674
 20
8.799671
 30
0.0
 10
8.191860
 20
8.554904
 30
0.0
  0
SPLINE
  5
19b
100
AcDbEntity
  8
Red
 62
1
100
AcDbSpline
 70
8
 71
3
 72
8
 73
4
 74
0
 40
0
 40
0
 40
0
 40
0
 40
1
 40
1
 40
1
 40
1
 10
8.191860
 20
8.554904
 30
0.0
 10
7.795117
 20
8.438719
 30
0.0
 10
7.425704
 20
8.234876
 30
0.0
 10
7.108398
 20
7.970735
 30
0.0
  0
LWPOLYLINE
  5
19c
100
AcDbEntity
  8
Red
 62
1
100
AcDbPolyline
 90
1
 70
1
 10
1.820281
 20
6.868909
 30
0.0
  0
SPLINE
  5
19d
100
AcDbEntity
  8
Red
 62
1
100
AcDbSpline
 70
8
 71
3
 72
8
 73
4
 74
0
 40
0
 40
0
 40
0
 40
0
 40
1
 40
1
 40
1
 40
1
 10
7.115110
 20
7.972470
 30
0.0
 10
7.942452
 20
8.157858
 30
0.0
 10
7.697723
 20
7.476031
 30
0.0
 10
7.953429
 20
7.287906
 30
0.0
  0
SPLINE
  5
19e
100
AcDbEntity
  8
Red
 62
1
100
AcDbSpline
 70
8
 71
3
 72
8
 73
4
 74
0
 40
0
 40
0
 40
0
 40
0
 40
1
 40
1
 40
1
 40
1
 10
7.953429
 20
7.287906
 30
0.0
 10
8.114251
 20
7.430957
 30
0.0
 10
8.444840
 20
7.021361
 30
0.0
 10
8.396825
 20
6.698661
 30
0.0
  0
LWPOLYLINE
  5
19f
100
AcDbEntity
  8
Red
 62
1
100
AcDbPolyline
 90
2
 70
0
 10
7.108398
 20
7.970735
 30
0.0
 10
7.115110
 20
7.972470
 30
0.0
  0
SPLINE
  5
1a0
100
AcDbEntity
  8
Red
 62
1
100
AcDbSpline
 70
8
 71
3
 72
8
 73
4
 74
0
 40
0
 40
0
 40
0
 40
0
 40
1
 40
1
 40
1
 40
1
 10
8.391338
 20
6.688244
 30
0.0
 10
8.232970
 20
6.884381
 30
0.0
 10
7.857488
 20
6.878763
 30
0.0
 10
7.824234
 20
7.183175
 30
0.0
  0
LWPOLYLINE
  5
1a1
100
AcDbEntity
  8
Red
 62
1
100
AcDbPolyline
 90
2
 70
0
 10
8.396825
 20
6.698661
 30
0.0
 10
8.391338
 20
6.688244
 30
0.0
  0
SPLINE
  5
1a2
100
AcDbEntity
  8
Red
 62
1
100
AcDbSpline
 70
8
 71
3
 72
8
 73
4
 74
0
 40
0
 40
0
 40
0
 40
0
 40
1
 40
1
 40
1
 40
1
 10
7.820939
 20
7.185758
 30
0.0
 10
7.764974
 20
7.119574
 30
0.0
 10
7.714259
 20
6.532506
 30
0.0
 10
6.903538
 20
6.735862
 30
0.0
  0
LWPOLYLINE
  5
1a3
100
AcDbEntity
  8
Red
 62
1
100
AcDbPolyline
 90
2
 70
0
 10
7.824234
 20
7.183175
 30
0.0
 10
7.820939
 20
7.185758
 30
0.0
  0
SPLINE
  5
1a4
100
AcDbEntity
  8
Red
 62
1
100
AcDbSpline
 70
8
 71
3
 72
8
 73
4
 74
0
 40
0
 40
0
 40
0
 40
0
 40
1
 40
1
 40
1
 40
1
 10
6.876838
 20
6.742768
 30
0.0
 10
7.333925
 20
7.370267
 30
0.0
 10
7.602119
 20
7.250000
 30
0.0
 10
7.687181
 20
7.217283
 30
0.0
  0
SPLINE
  5
1a5
100
AcDbEntity
  8
Red
 62
1
100
AcDbSpline
 70
8
 71
3
 72
8
 73
4
 74
0
 40
0
 40
0
 40
0
 40
0
 40
1
 40
1
 40
1
 40
1
 10
7.687181
 20
7.217283
 30
0.0
 10
7.747513
 20
7.194078
 30
0.0
 10
7.707531
 20
7.305678
 30
0.0
 10
7.665714
 20
7.467692
 30
0.0
  0
SPLINE
  5
1a6
100
AcDbEntity
  8
Red
 62
1
100
AcDbSpline
 70
8
 71
3
 72
8
 73
4
 74
0
 40
0
 40
0
 40
0
 40
0
 40
1
 40
1
 40
1
 40
1
 10
7.665714
 20
7.467692
 30
0.0
 10
7.501584
 20
8.089362
 30
0.0
 10
6.670206
 20
7.825287
 30
0.0
 10
6.597774
 20
7.272348
 30
0.0
  0
SPLINE
  5
1a7
100
AcDbEntity
  8
Red
 62
1
100
AcDbSpline
 70
8
 71
3
 72
8
 73
4
 74
0
 40
0
 40
0
 40
0
 40
0
 40
1
 40
1
 40
1
 40
1
 10
6.597774
 20
7.272348
 30
0.0
 10
6.474921
 20
6.730224
 30
0.0
 10
6.455727
 20
6.028009
 30
0.0
 10
6.963879
 20
5.669038
 30
0.0
  0
SPLINE
  5
1a8
100
AcDbEntity
  8
Red
 62
1
100
AcDbSpline
 70
8
 71
3
 72
8
 73
4
 74
0
 40
0
 40
0
 40
0
 40
0
 40
1
 40
1
 40
1
 40
1
 10
6.963879
 20
5.669038
 30
0.0
 10
7.510510
 20
5.310341
 30
0.0
 10
8.189041
 20
5.627163
 30
0.0
 10
8.670501
 20
5.952478
 30
0.0
  0
SPLINE
  5
1a9
100
AcDbEntity
  8
Red
 62
1
100
AcDbSpline
 70
8
 71
3
 72
8
 73
4
 74
0
 40
0
 40
0
 40
0
 40
0
 40
1
 40
1
 40
1
 40
1
 10
8.670501
 20
5.952478
 30
0.0
 10
9.032075
 20
6.216490
 30
0.0
 10
9.660258
 20
6.501909
 30
0.0
 10
9.449123
 20
7.051100
 30
0.0
  0
SPLINE
  5
1aa
100
AcDbEntity
  8
Red
 62
1
100
AcDbSpline
 70
8
 71
3
 72
8
 73
4
 74
0
 40
0
 40
0
 40
0
 40
0
 40
1
 40
1
 40
1
 40
1
 10
9.449123
 20
7.051100
 30
0.0
 10
9.356149
 20
7.280736
 30
0.0
 10
8.960271
 20
7.248568
 30
0.0
 10
8.825769
 20
7.060083
 30
0.0
  0
SPLINE
  5
1ab
100
AcDbEntity
  8
Red
 62
1
100
AcDbSpline
 70
8
 71
3
 72
8
 73
4
 74
0
 40
0
 40
0
 40
0
 40
0
 40
1
 40
1
 40
1
 40
1
 10
8.825769
 20
7.060083
 30
0.0
 10
8.859983
 20
6.851690
 30
0.0
 10
8.841544
 20
6.591874
 30
0.0
 10
8.596509
 20
6.482143
 30
0.0
  0
SPLINE
  5
1ac
100
AcDbEntity
  8
Red
 62
1
100
AcDbSpline
 70
8
 71
3
 72
8
 73
4
 74
0
 40
0
 40
0
 40
0
 40
0
 40
1
 40
1
 40
1
 40
1
 10
8.596509
 20
6.482143
 30
0.0
 10
8.421008
 20
6.676237
 30
0.0
 10
8.456204
 20
6.921009
 30
0.0
 10
8.589943
 20
7.104061
 30
0.0
  0
SPLINE
  5
1ad
100
AcDbEntity
  8
Red
 62
1
100
AcDbSpline
 70
8
 71
3
 72
8
 73
4
 74
0
 40
0
 40
0
 40
0
 40
0
 40
1
 40
1
 40
1
 40
1
 10
8.589943
 20
7.104061
 30
0.0
 10
8.723682
 20
7.287113
 30
0.0
 10
8.958567
 20
7.403806
 30
0.0
 10
9.188399
 20
7.357799
 30
0.0
  0
SPLINE
  5
1ae
100
AcDbEntity
  8
Red
 62
1
100
AcDbSpline
 70
8
 71
3
 72
8
 73
4
 74
0
 40
0
 40
0
 40
0
 40
0
 40
1
 40
1
 40
1
 40
1
 10
9.188399
 20
7.357799
 30
0.0
 10
9.190068
 20
7.360807
 30
0.0
 10
9.189135
 20
7.361103
 30
0.0
 10
9.188202
 20
7.361418
 30
0.0
  0
SPLINE
  5
1af
100
AcDbEntity
  8
Red
 62
1
100
AcDbSpline
 70
8
 71
3
 72
8
 73
4
 74
0
 40
0
 40
0
 40
0
 40
0
 40
1
 40
1
 40
1
 40
1
 10
9.188202
 20
7.361418
 30
0.0
 10
8.977327
 20
7.432318
 30
0.0
 10
8.796613
 20
7.779360
 30
0.0
 10
8.670171
 20
7.777159
 30
0.0
  0
SPLINE
  5
1b0
100
AcDbEntity
  8
Red
 62
1
100
AcDbSpline
 70
8
 71
3
 72
8
 73
4
 74
0
 40
0
 40
0
 40
0
 40
0
 40
1
 40
1
 40
1
 40
1
 10
8.670171
 20
7.777159
 30
0.0
 10
8.628221
 20
7.758768
 30
0.0
 10
8.611150
 20
7.741942
 30
0.0
 10
8.599553
 20
7.716903
 30
0.0
  0
SPLINE
  5
1b1
100
AcDbEntity
  8
Red
 62
1
100
AcDbSpline
 70
8
 71
3
 72
8
 73
4
 74
0
 40
0
 40
0
 40
0
 40
0
 40
1
 40
1
 40
1
 40
1
 10
8.599553
 20
7.716903
 30
0.0
 10
8.583902
 20
7.683114
 30
0.0
 10
8.543342
 20
7.659239
 30
0.0
 10
8.493401
 20
7.649635
 30
0.0
  0
SPLINE
  5
1b2
100
AcDbEntity
  8
Red
 62
1
100
AcDbSpline
 70
8
 71
3
 72
8
 73
4
 74
0
 40
0
 40
0
 40
0
 40
0
 40
1
 40
1
 40
1
 40
1
 10
8.493401
 20
7.649635
 30
0.0
 10
8.414905
 20
7.634541
 30
0.0
 10
8.205887
 20
7.671196
 30
0.0
 10
8.138177
 20
7.736236
 30
0.0
  0
LWPOLYLINE
  5
1b3
100
AcDbEntity
  8
Red
 62
1
100
AcDbPolyline
 90
2
 70
0
 10
6.903538
 20
6.735862
 30
0.0
 10
6.876838
 20
6.742768
 30
0.0
  0
SPLINE
  5
1b4
100
AcDbEntity
  8
Red
 62
1
100
AcDbSpline
 70
8
 71
3
 72
8
 73
4
 74
0
 40
0
 40
0
 40
0
 40
0
 40
1
 40
1
 40
1
 40
1
 10
8.134456
 20
7.738099
 30
0.0
 10
8.298963
 20
7.804790
 30
0.0
 10
8.318308
 20
7.873146
 30
0.0
 10
8.372006
 20
7.977310
 30
0.0
  0
SPLINE
  5
1b5
100
AcDbEntity
  8
Red
 62
1
100
AcDbSpline
 70
8
 71
3
 72
8
 73
4
 74
0
 40
0
 40
0
 40
0
 40
0
 40
1
 40
1
 40
1
 40
1
 10
8.372006
 20
7.977310
 30
0.0
 10
8.436708
 20
8.102819
 30
0.0
 10
8.636769
 20
8.036197
 30
0.0
 10
8.726386
 20
7.868266
 30
0.0
  0
LWPOLYLINE
  5
1b6
100
AcDbEntity
  8
Red
 62
1
100
AcDbPolyline
 90
2
 70
0
 10
8.138177
 20
7.736236
 30
0.0
 10
8.134456
 20
7.738099
 30
0.0
  0
SPLINE
  5
1b7
100
AcDbEntity
  8
Red
 62
1
100
AcDbSpline
 70
8
 71
3
 72
8
 73
4
 74
0
 40
0
 40
0
 40
0
 40
0
 40
1
 40
1
 40
1
 40
1
 10
8.721690
 20
7.870096
 30
0.0
 10
8.962615
 20
7.788010
 30
0.0
 10
9.320497
 20
7.430906
 30
0.0
 10
9.324947
 20
7.464752
 30
0.0
  0
LWPOLYLINE
  5
1b8
100
AcDbEntity
  8
Red
 62
1
100
AcDbPolyline
 90
2
 70
0
 10
8.726386
 20
7.868266
 30
0.0
 10
8.721690
 20
7.870096
 30
0.0
  0
SPLINE
  5
1b9
100
AcDbEntity
  8
Red
 62
1
100
AcDbSpline
 70
8
 71
3
 72
8
 73
4
 74
0
 40
0
 40
0
 40
0
 40
0
 40
1
 40
1
 40
1
 40
1
 10
9.318895
 20
7.479666
 30
0.0
 10
9.292625
 20
7.627296
 30
0.0
 10
9.343668
 20
7.775356
 30
0.0
 10
9.423330
 20
7.902339
 30
0.0
  0
LWPOLYLINE
  5
1ba
100
AcDbEntity
  8
Red
 62
1
100
AcDbPolyline
 90
2
 70
0
 10
9.324947
 20
7.464752
 30
0.0
 10
9.318895
 20
7.479666
 30
0.0
  0
SPLINE
  5
1bb
100
AcDbEntity
  8
Red
 62
1
100
AcDbSpline
 70
8
 71
3
 72
8
 73
4
 74
0
 40
0
 40
0
 40
0
 40
0
 40
1
 40
1
 40
1
 40
1
 10
9.425763
 20
7.906811
 30
0.0
 10
9.288221
 20
8.190685
 30
0.0
 10
9.657211
 20
8.392199
 30
0.0
 10
9.896313
 20
8.359867
 30
0.0
  0
SPLINE
  5
1bc
100
AcDbEntity
  8
Red
 62
1
100
AcDbSpline
 70
8
 71
3
 72
8
 73
4
 74
0
 40
0
 40
0
 40
0
 40
0
 40
1
 40
1
 40
1
 40
1
 10
9.896313
 20
8.359867
 30
0.0
 10
9.686089
 20
8.247568
 30
0.0
 10
9.930439
 20
7.819496
 30
0.0
 10
9.566711
 20
7.858758
 30
0.0
  0
LWPOLYLINE
  5
1bd
100
AcDbEntity
  8
Red
 62
1
100
AcDbPolyline
 90
2
 70
0
 10
9.423330
 20
7.902339
 30
0.0
 10
9.425763
 20
7.906811
 30
0.0
  0
SPLINE
  5
1be
100
AcDbEntity
  8
Red
 62
1
100
AcDbSpline
 70
8
 71
3
 72
8
 73
4
 74
0
 40
0
 40
0
 40
0
 40
0
 40
1
 40
1
 40
1
 40
1
 10
9.564160
 20
7.850484
 30
0.0
 10
9.522948
 20
7.709826
 30
0.0
 10
9.494737
 20
7.574733
 30
0.0
 10
9.504777
 20
7.426359
 30
0.0
  0
SPLINE
  5
1bf
100
AcDbEntity
  8
Red
 62
1
100
AcDbSpline
 70
8
 71
3
 72
8
 73
4
 74
0
 40
0
 40
0
 40
0
 40
0
 40
1
 40
1
 40
1
 40
1
 10
9.504777
 20
7.426359
 30
0.0
 10
9.626246
 20
7.194538
 30
0.0
 10
9.833391
 20
6.834645
 30
0.0
 10
9.620130
 20
6.608492
 30
0.0
  0
SPLINE
  5
1c0
100
AcDbEntity
  8
Red
 62
1
100
AcDbSpline
 70
8
 71
3
 72
8
 73
4
 74
0
 40
0
 40
0
 40
0
 40
0
 40
1
 40
1
 40
1
 40
1
 10
9.620130
 20
6.608492
 30
0.0
 10
9.795035
 20
6.723024
 30
0.0
 10
9.974364
 20
6.812505
 30
0.0
 10
10.171844
 20
6.868909
 30
0.0
  0
LWPOLYLINE
  5
1c1
100
AcDbEntity
  8
Red
 62
1
100
AcDbPolyline
 90
2
 70
0
 10
9.566711
 20
7.858758
 30
0.0
 10
9.564160
 20
7.850484
 30
0.0
  0
SPLINE
  5
1c2
100
AcDbEntity
  8
Red
 62
1
100
AcDbSpline
 70
8
 71
3
 72
8
 73
4
 74
0
 40
0
 40
0
 40
0
 40
0
 40
1
 40
1
 40
1
 40
1
 10
0.475701
 20
7.306585
 30
0.0
 10
0.462828
 20
7.891879
 30
0.0
 10
1.026674
 20
8.571796
 30
0.0
 10
1.569691
 20
8.912160
 30
0.0
  0
SPLINE
  5
1c3
100
AcDbEntity
  8
Red
 62
1
100
AcDbSpline
 70
8
 71
3
 72
8
 73
4
 74
0
 40
0
 40
0
 40
0
 40
0
 40
1
 40
1
 40
1
 40
1
 10
1.569691
 20
8.912160
 30
0.0
 10
1.638474
 20
8.980553
 30
0.0
 10
1.446749
 20
8.528863
 30
0.0
 10
1.229854
 20
8.328391
 30
0.0
  0
SPLINE
  5
1c4
100
AcDbEntity
  8
Red
 62
1
100
AcDbSpline
 70
8
 71
3
 72
8
 73
4
 74
0
 40
0
 40
0
 40
0
 40
0
 40
1
 40
1
 40
1
 40
1
 10
1.229854
 20
8.328391
 30
0.0
 10
0.847493
 20
7.916423
 30
0.0
 10
0.563557
 20
7.573326
 30
0.0
 10
0.733291
 20
6.957098
 30
0.0
  0
SPLINE
  5
1c5
100
AcDbEntity
  8
Red
 62
1
100
AcDbSpline
 70
8
 71
3
 72
8
 73
4
 74
0
 40
0
 40
0
 40
0
 40
0
 40
1
 40
1
 40
1
 40
1
 10
0.733291
 20
6.957098
 30
0.0
 10
0.598148
 20
6.988335
 30
0.0
 10
0.502111
 20
7.085306
 30
0.0
 10
0.475701
 20
7.306585
 30
0.0
  0
LWPOLYLINE
  5
1c6
100
AcDbEntity
  8
Red
 62
1
100
AcDbPolyline
 90
1
 70
1
 10
10.171844
 20
6.868909
 30
0.0
  0
SPLINE
  5
1c7
100
AcDbEntity
  8
Red
 62
1
100
AcDbSpline
 70
8
 71
3
 72
8
 73
4
 74
0
 40
0
 40
0
 40
0
 40
0
 40
1
 40
1
 40
1
 40
1
 10
11.516424
 20
7.306585
 30
0.0
 10
11.529297
 20
7.891879
 30
0.0
 10
10.965451
 20
8.571796
 30
0.0
 10
10.422434
 20
8.912160
 30
0.0
  0
SPLINE
  5
1c8
100
AcDbEntity
  8
Red
 62
1
100
AcDbSpline
 70
8
 71
3
 72
8
 73
4
 74
0
 40
0
 40
0
 40
0
 40
0
 40
1
 40
1
 40
1
 40
1
 10
10.422434
 20
8.912160
 30
0.0
 10
10.353651
 20
8.980553
 30
0.0
 10
10.545376
 20
8.528863
 30
0.0
 10
10.762272
 20
8.328391
 30
0.0
  0
SPLINE
  5
1c9
100
AcDbEntity
  8
Red
 62
1
100
AcDbSpline
 70
8
 71
3
 72
8
 73
4
 74
0
 40
0
 40
0
 40
0
 40
0
 40
1
 40
1
 40
1
 40
1
 10
10.762272
 20
8.328391
 30
0.0
 10
11.144632
 20
7.916423
 30
0.0
 10
11.428568
 20
7.573326
 30
0.0
 10
11.258835
 20
6.957098
 30
0.0
  0
SPLINE
  5
1ca
100
AcDbEntity
  8
Red
 62
1
100
AcDbSpline
 70
8
 71
3
 72
8
 73
4
 74
0
 40
0
 40
0
 40
0
 40
0
 40
1
 40
1
 40
1
 40
1
 10
11.258835
 20
6.957098
 30
0.0
 10
11.393977
 20
6.988335
 30
0.0
 10
11.490014
 20
7.085306
 30
0.0
 10
11.516424
 20
7.306585
 30
0.0
  0
LWPOLYLINE
  5
1cb
100
AcDbEntity
  8
Red
 62
1
100
AcDbPolyline
 90
1
 70
1
 10
0.475701
 20
7.306585
 30
0.0
  0
SPLINE
  5
1cc
100
AcDbEntity
  8
Red
 62
1
100
AcDbSpline
 70
8
 71
3
 72
8
 73
4
 74
0
 40
0
 40
0
 40
0
 40
0
 40
1
 40
1
 40
1
 40
1
 10
5.996063
 20
0.041503
 30
0.0
 10
5.880265
 20
0.041425
 30
0.0
 10
5.758264
 20
0.044763
 30
0.0
 10
5.641896
 20
0.052087
 30
0.0
  0
SPLINE
  5
1cd
100
AcDbEntity
  8
Red
 62
1
100
AcDbSpline
 70
8
 71
3
 72
8
 73
4
 74
0
 40
0
 40
0
 40
0
 40
0
 40
1
 40
1
 40
1
 40
1
 10
5.641896
 20
0.052087
 30
0.0
 10
5.443015
 20
0.064609
 30
0.0
 10
5.244927
 20
0.088361
 30
0.0
 10
5.048146
 20
0.119795
 30
0.0
  0
SPLINE
  5
1ce
100
AcDbEntity
  8
Red
 62
1
100
AcDbSpline
 70
8
 71
3
 72
8
 73
4
 74
0
 40
0
 40
0
 40
0
 40
0
 40
1
 40
1
 40
1
 40
1
 10
5.048146
 20
0.119795
 30
0.0
 10
4.864486
 20
0.149133
 30
0.0
 10
4.680558
 20
0.185558
 30
0.0
 10
4.508158
 20
0.255346
 30
0.0
  0
SPLINE
  5
1cf
100
AcDbEntity
  8
Red
 62
1
100
AcDbSpline
 70
8
 71
3
 72
8
 73
4
 74
0
 40
0
 40
0
 40
0
 40
0
 40
1
 40
1
 40
1
 40
1
 10
4.508158
 20
0.255346
 30
0.0
 10
4.350055
 20
0.319347
 30
0.0
 10
4.204296
 20
0.401702
 30
0.0
 10
4.092876
 20
0.531612
 30
0.0
  0
SPLINE
  5
1d0
100
AcDbEntity
  8
Red
 62
1
100
AcDbSpline
 70
8
 71
3
 72
8
 73
4
 74
0
 40
0
 40
0
 40
0
 40
0
 40
1
 40
1
 40
1
 40
1
 10
4.092876
 20
0.531612
 30
0.0
 10
4.073380
 20
0.533316
 30
0.0
 10
4.049342
 20
0.531533
 30
0.0
 10
4.030270
 20
0.533592
 30
0.0
  0
SPLINE
  5
1d1
100
AcDbEntity
  8
Red
 62
1
100
AcDbSpline
 70
8
 71
3
 72
8
 73
4
 74
0
 40
0
 40
0
 40
0
 40
0
 40
1
 40
1
 40
1
 40
1
 10
4.030270
 20
0.533592
 30
0.0
 10
3.275929
 20
0.615042
 30
0.0
 10
2.524837
 20
1.064400
 30
0.0
 10
2.073709
 20
1.696713
 30
0.0
  0
SPLINE
  5
1d2
100
AcDbEntity
  8
Red
 62
1
100
AcDbSpline
 70
8
 71
3
 72
8
 73
4
 74
0
 40
0
 40
0
 40
0
 40
0
 40
1
 40
1
 40
1
 40
1
 10
2.073709
 20
1.696713
 30
0.0
 10
1.742570
 20
2.166919
 30
0.0
 10
1.210651
 20
2.381249
 30
0.0
 10
0.744404
 20
2.672046
 30
0.0
  0
SPLINE
  5
1d3
100
AcDbEntity
  8
Red
 62
1
100
AcDbSpline
 70
8
 71
3
 72
8
 73
4
 74
0
 40
0
 40
0
 40
0
 40
0
 40
1
 40
1
 40
1
 40
1
 10
0.744404
 20
2.672046
 30
0.0
 10
0.304019
 20
3.030922
 30
0.0
 10
0.272710
 20
3.668361
 30
0.0
 10
0.333801
 20
4.188459
 30
0.0
  0
SPLINE
  5
1d4
100
AcDbEntity
  8
Red
 62
1
100
AcDbSpline
 70
8
 71
3
 72
8
 73
4
 74
0
 40
0
 40
0
 40
0
 40
0
 40
1
 40
1
 40
1
 40
1
 10
0.333801
 20
4.188459
 30
0.0
 10
0.388296
 20
4.652400
 30
0.0
 10
0.917054
 20
4.960395
 30
0.0
 10
1.003550
 20
5.419447
 30
0.0
  0
SPLINE
  5
1d5
100
AcDbEntity
  8
Red
 62
1
100
AcDbSpline
 70
8
 71
3
 72
8
 73
4
 74
0
 40
0
 40
0
 40
0
 40
0
 40
1
 40
1
 40
1
 40
1
 10
1.003550
 20
5.419447
 30
0.0
 10
1.081976
 20
5.835675
 30
0.0
 10
0.988750
 20
6.272954
 30
0.0
 10
0.844114
 20
6.680061
 30
0.0
  0
SPLINE
  5
1d6
100
AcDbEntity
  8
Red
 62
1
100
AcDbSpline
 70
8
 71
3
 72
8
 73
4
 74
0
 40
0
 40
0
 40
0
 40
0
 40
1
 40
1
 40
1
 40
1
 10
0.844114
 20
6.680061
 30
0.0
 10
0.554838
 20
6.677905
 30
0.0
 10
0.287773
 20
6.738340
 30
0.0
 10
0.204670
 20
7.078644
 30
0.0
  0
SPLINE
  5
1d7
100
AcDbEntity
  8
Red
 62
1
100
AcDbSpline
 70
8
 71
3
 72
8
 73
4
 74
0
 40
0
 40
0
 40
0
 40
0
 40
1
 40
1
 40
1
 40
1
 10
0.204670
 20
7.078644
 30
0.0
 10
0.018770
 20
7.804990
 30
0.0
 10
0.509573
 20
8.510473
 30
0.0
 10
1.063229
 20
8.933587
 30
0.0
  0
SPLINE
  5
1d8
100
AcDbEntity
  8
Red
 62
1
100
AcDbSpline
 70
8
 71
3
 72
8
 73
4
 74
0
 40
0
 40
0
 40
0
 40
0
 40
1
 40
1
 40
1
 40
1
 10
1.063229
 20
8.933587
 30
0.0
 10
1.523638
 20
9.273719
 30
0.0
 10
1.945433
 20
9.657934
 30
0.0
 10
2.365106
 20
10.045269
 30
0.0
  0
SPLINE
  5
1d9
100
AcDbEntity
  8
Red
 62
1
100
AcDbSpline
 70
8
 71
3
 72
8
 73
4
 74
0
 40
0
 40
0
 40
0
 40
0
 40
1
 40
1
 40
1
 40
1
 10
2.365106
 20
10.045269
 30
0.0
 10
2.482615
 20
10.142252
 30
0.0
 10
2.606301
 20
10.226961
 30
0.0
 10
2.731317
 20
10.329932
 30
0.0
  0
SPLINE
  5
1da
100
AcDbEntity
  8
Red
 62
1
100
AcDbSpline
 70
8
 71
3
 72
8
 73
4
 74
0
 40
0
 40
0
 40
0
 40
0
 40
1
 40
1
 40
1
 40
1
 10
2.731317
 20
10.329932
 30
0.0
 10
2.542674
 20
10.844072
 30
0.0
 10
3.299006
 20
11.245737
 30
0.0
 10
3.805747
 20
11.353070
 30
0.0
  0
SPLINE
  5
1db
100
AcDbEntity
  8
Red
 62
1
100
AcDbSpline
 70
8
 71
3
 72
8
 73
4
 74
0
 40
0
 40
0
 40
0
 40
0
 40
1
 40
1
 40
1
 40
1
 10
3.805747
 20
11.353070
 30
0.0
 10
3.895077
 20
11.371991
 30
0.0
 10
3.986631
 20
11.405523
 30
0.0
 10
4.084259
 20
11.426647
 30
0.0
  0
SPLINE
  5
1dc
100
AcDbEntity
  8
Red
 62
1
100
AcDbSpline
 70
8
 71
3
 72
8
 73
4
 74
0
 40
0
 40
0
 40
0
 40
0
 40
1
 40
1
 40
1
 40
1
 10
4.084259
 20
11.426647
 30
0.0
 10
4.090014
 20
11.430205
 30
0.0
 10
4.109837
 20
11.442727
 30
0.0
 10
4.122925
 20
11.450261
 30
0.0
  0
SPLINE
  5
1dd
100
AcDbEntity
  8
Red
 62
1
100
AcDbSpline
 70
8
 71
3
 72
8
 73
4
 74
0
 40
0
 40
0
 40
0
 40
0
 40
1
 40
1
 40
1
 40
1
 10
4.122925
 20
11.450261
 30
0.0
 10
4.234303
 20
11.514375
 30
0.0
 10
4.393102
 20
11.578871
 30
0.0
 10
4.461936
 20
11.633868
 30
0.0
  0
SPLINE
  5
1de
100
AcDbEntity
  8
Red
 62
1
100
AcDbSpline
 70
8
 71
3
 72
8
 73
4
 74
0
 40
0
 40
0
 40
0
 40
0
 40
1
 40
1
 40
1
 40
1
 10
4.461936
 20
11.633868
 30
0.0
 10
4.920398
 20
11.961865
 30
0.0
 10
5.420281
 20
11.994096
 30
0.0
 10
5.969519
 20
12.000710
 30
0.0
  0
LWPOLYLINE
  5
1df
100
AcDbEntity
  8
Red
 62
1
100
AcDbPolyline
 90
1
 70
1
 10
11.516424
 20
7.306585
 30
0.0
  0
SPLINE
  5
1e0
100
AcDbEntity
  8
Red
 62
1
100
AcDbSpline
 70
8
 71
3
 72
8
 73
4
 74
0
 40
0
 40
0
 40
0
 40
0
 40
1
 40
1
 40
1
 40
1
 10
6.022606
 20
12.000710
 30
0.0
 10
6.571845
 20
11.994096
 30
0.0
 10
7.071727
 20
11.961865
 30
0.0
 10
7.530189
 20
11.633868
 30
0.0
  0
SPLINE
  5
1e1
100
AcDbEntity
  8
Red
 62
1
100
AcDbSpline
 70
8
 71
3
 72
8
 73
4
 74
0
 40
0
 40
0
 40
0
 40
0
 40
1
 40
1
 40
1
 40
1
 10
7.530189
 20
11.633868
 30
0.0
 10
7.599023
 20
11.578871
 30
0.0
 10
7.757823
 20
11.514375
 30
0.0
 10
7.869200
 20
11.450261
 30
0.0
  0
SPLINE
  5
1e2
100
AcDbEntity
  8
Red
 62
1
100
AcDbSpline
 70
8
 71
3
 72
8
 73
4
 74
0
 40
0
 40
0
 40
0
 40
0
 40
1
 40
1
 40
1
 40
1
 10
7.869200
 20
11.450261
 30
0.0
 10
7.882289
 20
11.442727
 30
0.0
 10
7.902112
 20
11.430205
 30
0.0
 10
7.907866
 20
11.426647
 30
0.0
  0
SPLINE
  5
1e3
100
AcDbEntity
  8
Red
 62
1
100
AcDbSpline
 70
8
 71
3
 72
8
 73
4
 74
0
 40
0
 40
0
 40
0
 40
0
 40
1
 40
1
 40
1
 40
1
 10
7.907866
 20
11.426647
 30
0.0
 10
8.005495
 20
11.405523
 30
0.0
 10
8.097048
 20
11.371991
 30
0.0
 10
8.186378
 20
11.353070
 30
0.0
  0
SPLINE
  5
1e4
100
AcDbEntity
  8
Red
 62
1
100
AcDbSpline
 70
8
 71
3
 72
8
 73
4
 74
0
 40
0
 40
0
 40
0
 40
0
 40
1
 40
1
 40
1
 40
1
 10
8.186378
 20
11.353070
 30
0.0
 10
8.693119
 20
11.245737
 30
0.0
 10
9.449451
 20
10.844072
 30
0.0
 10
9.260808
 20
10.329932
 30
0.0
  0
SPLINE
  5
1e5
100
AcDbEntity
  8
Red
 62
1
100
AcDbSpline
 70
8
 71
3
 72
8
 73
4
 74
0
 40
0
 40
0
 40
0
 40
0
 40
1
 40
1
 40
1
 40
1
 10
9.260808
 20
10.329932
 30
0.0
 10
9.385825
 20
10.226961
 30
0.0
 10
9.509510
 20
10.142252
 30
0.0
 10
9.627020
 20
10.045269
 30
0.0
  0
SPLINE
  5
1e6
100
AcDbEntity
  8
Red
 62
1
100
AcDbSpline
 70
8
 71
3
 72
8
 73
4
 74
0
 40
0
 40
0
 40
0
 40
0
 40
1
 40
1
 40
1
 40
1
 10
9.627020
 20
10.045269
 30
0.0
 10
10.046692
 20
9.657934
 30
0.0
 10
10.468487
 20
9.273719
 30
0.0
 10
10.928897
 20
8.933587
 30
0.0
  0
SPLINE
  5
1e7
100
AcDbEntity
  8
Red
 62
1
100
AcDbSpline
 70
8
 71
3
 72
8
 73
4
 74
0
 40
0
 40
0
 40
0
 40
0
 40
1
 40
1
 40
1
 40
1
 10
10.928897
 20
8.933587
 30
0.0
 10
11.482552
 20
8.510473
 30
0.0
 10
11.973356
 20
7.804990
 30
0.0
 10
11.787456
 20
7.078644
 30
0.0
  0
SPLINE
  5
1e8
100
AcDbEntity
  8
Red
 62
1
100
AcDbSpline
 70
8
 71
3
 72
8
 73
4
 74
0
 40
0
 40
0
 40
0
 40
0
 40
1
 40
1
 40
1
 40
1
 10
11.787456
 20
7.078644
 30
0.0
 10
11.704352
 20
6.738340
 30
0.0
 10
11.437287
 20
6.677905
 30
0.0
 10
11.148011
 20
6.680061
 30
0.0
  0
SPLINE
  5
1e9
100
AcDbEntity
  8
Red
 62
1
100
AcDbSpline
 70
8
 71
3
 72
8
 73
4
 74
0
 40
0
 40
0
 40
0
 40
0
 40
1
 40
1
 40
1
 40
1
 10
11.148011
 20
6.680061
 30
0.0
 10
11.003376
 20
6.272954
 30
0.0
 10
10.910150
 20
5.835675
 30
0.0
 10
10.988576
 20
5.419447
 30
0.0
  0
SPLINE
  5
1ea
100
AcDbEntity
  8
Red
 62
1
100
AcDbSpline
 70
8
 71
3
 72
8
 73
4
 74
0
 40
0
 40
0
 40
0
 40
0
 40
1
 40
1
 40
1
 40
1
 10
10.988576
 20
5.419447
 30
0.0
 10
11.075071
 20
4.960395
 30
0.0
 10
11.603830
 20
4.652400
 30
0.0
 10
11.658324
 20
4.188459
 30
0.0
  0
SPLINE
  5
1eb
100
AcDbEntity
  8
Red
 62
1
100
AcDbSpline
 70
8
 71
3
 72
8
 73
4
 74
0
 40
0
 40
0
 40
0
 40
0
 40
1
 40
1
 40
1
 40
1
 10
11.658324
 20
4.188459
 30
0.0
 10
11.719416
 20
3.668361
 30
0.0
 10
11.688106
 20
3.030922
 30
0.0
 10
11.247722
 20
2.672046
 30
0.0
  0
SPLINE
  5
1ec
100
AcDbEntity
  8
Red
 62
1
100
AcDbSpline
 70
8
 71
3
 72
8
 73
4
 74
0
 40
0
 40
0
 40
0
 40
0
 40
1
 40
1
 40
1
 40
1
 10
11.247722
 20
2.672046
 30
0.0
 10
10.781474
 20
2.381249
 30
0.0
 10
10.249555
 20
2.166919
 30
0.0
 10
9.918416
 20
1.696713
 30
0.0
  0
SPLINE
  5
1ed
100
AcDbEntity
  8
Red
 62
1
100
AcDbSpline
 70
8
 71
3
 72
8
 73
4
 74
0
 40
0
 40
0
 40
0
 40
0
 40
1
 40
1
 40
1
 40
1
 10
9.918416
 20
1.696713
 30
0.0
 10
9.467289
 20
1.064400
 30
0.0
 10
8.716197
 20
0.615042
 30
0.0
 10
7.961856
 20
0.533592
 30
0.0
  0
SPLINE
  5
1ee
100
AcDbEntity
  8
Red
 62
1
100
AcDbSpline
 70
8
 71
3
 72
8
 73
4
 74
0
 40
0
 40
0
 40
0
 40
0
 40
1
 40
1
 40
1
 40
1
 10
7.961856
 20
0.533592
 30
0.0
 10
7.942783
 20
0.531533
 30
0.0
 10
7.918745
 20
0.533316
 30
0.0
 10
7.899249
 20
0.531612
 30
0.0
  0
SPLINE
  5
1ef
100
AcDbEntity
  8
Red
 62
1
100
AcDbSpline
 70
8
 71
3
 72
8
 73
4
 74
0
 40
0
 40
0
 40
0
 40
0
 40
1
 40
1
 40
1
 40
1
 10
7.899249
 20
0.531612
 30
0.0
 10
7.787830
 20
0.401702
 30
0.0
 10
7.642071
 20
0.319347
 30
0.0
 10
7.483967
 20
0.255346
 30
0.0
  0
SPLINE
  5
1f0
100
AcDbEntity
  8
Red
 62
1
100
AcDbSpline
 70
8
 71
3
 72
8
 73
4
 74
0
 40
0
 40
0
 40
0
 40
0
 40
1
 40
1
 40
1
 40
1
 10
7.483967
 20
0.255346
 30
0.0
 10
7.311568
 20
0.185558
 30
0.0
 10
7.127640
 20
0.149133
 30
0.0
 10
6.943979
 20
0.119795
 30
0.0
  0
SPLINE
  5
1f1
100
AcDbEntity
  8
Red
 62
1
100
AcDbSpline
 70
8
 71
3
 72
8
 73
4
 74
0
 40
0
 40
0
 40
0
 40
0
 40
1
 40
1
 40
1
 40
1
 10
6.943979
 20
0.119795
 30
0.0
 10
6.747199
 20
0.088361
 30
0.0
 10
6.549111
 20
0.064609
 30
0.0
 10
6.350229
 20
0.052087
 30
0.0
  0
SPLINE
  5
1f2
100
AcDbEntity
  8
Red
 62
1
100
AcDbSpline
 70
8
 71
3
 72
8
 73
4
 74
0
 40
0
 40
0
 40
0
 40
0
 40
1
 40
1
 40
1
 40
1
 10
6.350229
 20
0.052087
 30
0.0
 10
6.233862
 20
0.044761
 30
0.0
 10
6.111861
 20
0.041437
 30
0.0
 10
5.996063
 20
0.041503
 30
0.0
  0
LWPOLYLINE
  5
1f3
100
AcDbEntity
  8
Red
 62
1
100
AcDbPolyline
 90
3
 70
0
 10
5.969519
 20
12.000710
 30
0.0
 10
5.996063
 20
11.998815
 30
0.0
 10
6.022606
 20
12.000710
 30
0.0
  0
SPLINE
  5
1f4
100
AcDbEntity
  8
Red
 62
1
100
AcDbSpline
 70
8
 71
3
 72
8
 73
4
 74
0
 40
0
 40
0
 40
0
 40
0
 40
1
 40
1
 40
1
 40
1
 10
3.750124
 20
11.156613
 30
0.0
 10
3.749248
 20
11.161902
 30
0.0
 10
3.748396
 20
11.161745
 30
0.0
 10
3.747545
 20
11.161583
 30
0.0
  0
SPLINE
  5
1f5
100
AcDbEntity
  8
Red
 62
1
100
AcDbSpline
 70
8
 71
3
 72
8
 73
4
 74
0
 40
0
 40
0
 40
0
 40
0
 40
1
 40
1
 40
1
 40
1
 10
3.747545
 20
11.161583
 30
0.0
 10
3.381609
 20
11.092951
 30
0.0
 10
3.040086
 20
10.945860
 30
0.0
 10
3.005843
 20
10.637561
 30
0.0
  0
SPLINE
  5
1f6
100
AcDbEntity
  8
Red
 62
1
100
AcDbSpline
 70
8
 71
3
 72
8
 73
4
 74
0
 40
0
 40
0
 40
0
 40
0
 40
1
 40
1
 40
1
 40
1
 10
3.005843
 20
10.637561
 30
0.0
 10
3.003092
 20
10.612795
 30
0.0
 10
3.002337
 20
10.581816
 30
0.0
 10
3.004389
 20
10.555395
 30
0.0
  0
SPLINE
  5
1f7
100
AcDbEntity
  8
Red
 62
1
100
AcDbSpline
 70
8
 71
3
 72
8
 73
4
 74
0
 40
0
 40
0
 40
0
 40
0
 40
1
 40
1
 40
1
 40
1
 10
3.004389
 20
10.555395
 30
0.0
 10
3.253961
 20
10.753997
 30
0.0
 10
3.495445
 20
10.953088
 30
0.0
 10
3.750124
 20
11.156613
 30
0.0
  0
LWPOLYLINE
  5
1f8
100
AcDbEntity
  8
Red
 62
1
100
AcDbPolyline
 90
1
 70
1
 10
5.996063
 20
0.041503
 30
0.0
  0
SPLINE
  5
1f9
100
AcDbEntity
  8
Red
 62
1
100
AcDbSpline
 70
8
 71
3
 72
8
 73
4
 74
0
 40
0
 40
0
 40
0
 40
0
 40
1
 40
1
 40
1
 40
1
 10
8.242001
 20
11.156613
 30
0.0
 10
8.242879
 20
11.161902
 30
0.0
 10
8.243730
 20
11.161745
 30
0.0
 10
8.244580
 20
11.161583
 30
0.0
  0
SPLINE
  5
1fa
100
AcDbEntity
  8
Red
 62
1
100
AcDbSpline
 70
8
 71
3
 72
8
 73
4
 74
0
 40
0
 40
0
 40
0
 40
0
 40
1
 40
1
 40
1
 40
1
 10
8.244580
 20
11.161583
 30
0.0
 10
8.610516
 20
11.092951
 30
0.0
 10
8.952039
 20
10.945860
 30
0.0
 10
8.986282
 20
10.637561
 30
0.0
  0
SPLINE
  5
1fb
100
AcDbEntity
  8
Red
 62
1
100
AcDbSpline
 70
8
 71
3
 72
8
 73
4
 74
0
 40
0
 40
0
 40
0
 40
0
 40
1
 40
1
 40
1
 40
1
 10
8.986282
 20
10.637561
 30
0.0
 10
8.989034
 20
10.612795
 30
0.0
 10
8.989789
 20
10.581816
 30
0.0
 10
8.987734
 20
10.555395
 30
0.0
  0
SPLINE
  5
1fc
100
AcDbEntity
  8
Red
 62
1
100
AcDbSpline
 70
8
 71
3
 72
8
 73
4
 74
0
 40
0
 40
0
 40
0
 40
0
 40
1
 40
1
 40
1
 40
1
 10
8.987734
 20
10.555395
 30
0.0
 10
8.738163
 20
10.753997
 30
0.0
 10
8.496678
 20
10.953088
 30
0.0
 10
8.241999
 20
11.156613
 30
0.0
  0
LWPOLYLINE
  5
1fd
100
AcDbEntity
  8
Red
 62
1
100
AcDbPolyline
 90
1
 70
1
 10
3.750124
 20
11.156613
 30
0.0
  0
SPLINE
  5
1fe
100
AcDbEntity
  8
Red
 62
1
100
AcDbSpline
 70
8
 71
3
 72
8
 73
4
 74
0
 40
0
 40
0
 40
0
 40
0
 40
1
 40
1
 40
1
 40
1
 10
0.714813
 20
4.257812
 30
0.0
 10
0.726645
 20
4.046334
 30
0.0
 10
0.771661
 20
3.835439
 30
0.0
 10
0.860646
 20
3.643229
 30
0.0
  0
SPLINE
  5
1ff
100
AcDbEntity
  8
Red
 62
1
100
AcDbSpline
 70
8
 71
3
 72
8
 73
4
 74
0
 40
0
 40
0
 40
0
 40
0
 40
1
 40
1
 40
1
 40
1
 10
0.860646
 20
3.643229
 30
0.0
 10
0.987118
 20
3.370050
 30
0.0
 10
1.198064
 20
3.143245
 30
0.0
 10
1.433563
 20
2.955729
 30
0.0
  0
SPLINE
  5
200
100
AcDbEntity
  8
Red
 62
1
100
AcDbSpline
 70
8
 71
3
 72
8
 73
4
 74
0
 40
0
 40
0
 40
0
 40
0
 40
1
 40
1
 40
1
 40
1
 10
1.433563
 20
2.955729
 30
0.0
 10
1.691366
 20
2.750453
 30
0.0
 10
1.981320
 20
2.587318
 30
0.0
 10
2.285902
 20
2.458737
 30
0.0
  0
SPLINE
  5
201
100
AcDbEntity
  8
Red
 62
1
100
AcDbSpline
 70
8
 71
3
 72
8
 73
4
 74
0
 40
0
 40
0
 40
0
 40
0
 40
1
 40
1
 40
1
 40
1
 10
2.285902
 20
2.458737
 30
0.0
 10
2.440124
 20
2.353615
 30
0.0
 10
2.588902
 20
2.242522
 30
0.0
 10
2.732419
 20
2.125003
 30
0.0
  0
SPLINE
  5
202
100
AcDbEntity
  8
Red
 62
1
100
AcDbSpline
 70
8
 71
3
 72
8
 73
4
 74
0
 40
0
 40
0
 40
0
 40
0
 40
1
 40
1
 40
1
 40
1
 10
2.732419
 20
2.125003
 30
0.0
 10
2.912203
 20
1.977785
 30
0.0
 10
3.083568
 20
1.820632
 30
0.0
 10
3.259066
 20
1.668330
 30
0.0
  0
SPLINE
  5
203
100
AcDbEntity
  8
Red
 62
1
100
AcDbSpline
 70
8
 71
3
 72
8
 73
4
 74
0
 40
0
 40
0
 40
0
 40
0
 40
1
 40
1
 40
1
 40
1
 10
3.259066
 20
1.668330
 30
0.0
 10
3.411999
 20
1.535611
 30
0.0
 10
3.570098
 20
1.405243
 30
0.0
 10
3.752229
 20
1.316749
 30
0.0
  0
SPLINE
  5
204
100
AcDbEntity
  8
Red
 62
1
100
AcDbSpline
 70
8
 71
3
 72
8
 73
4
 74
0
 40
0
 40
0
 40
0
 40
0
 40
1
 40
1
 40
1
 40
1
 10
3.752229
 20
1.316749
 30
0.0
 10
3.780195
 20
1.303161
 30
0.0
 10
3.808823
 20
1.289680
 30
0.0
 10
3.841825
 20
1.278532
 30
0.0
  0
SPLINE
  5
205
100
AcDbEntity
  8
Red
 62
1
100
AcDbSpline
 70
8
 71
3
 72
8
 73
4
 74
0
 40
0
 40
0
 40
0
 40
0
 40
1
 40
1
 40
1
 40
1
 10
3.841825
 20
1.278532
 30
0.0
 10
3.845692
 20
1.170553
 30
0.0
 10
3.860177
 20
1.068055
 30
0.0
 10
3.884082
 20
0.968753
 30
0.0
  0
SPLINE
  5
206
100
AcDbEntity
  8
Red
 62
1
100
AcDbSpline
 70
8
 71
3
 72
8
 73
4
 74
0
 40
0
 40
0
 40
0
 40
0
 40
1
 40
1
 40
1
 40
1
 10
3.884082
 20
0.968753
 30
0.0
 10
3.891854
 20
0.936466
 30
0.0
 10
3.903409
 20
0.898194
 30
0.0
 10
3.914625
 20
0.860000
 30
0.0
  0
SPLINE
  5
207
100
AcDbEntity
  8
Red
 62
1
100
AcDbSpline
 70
8
 71
3
 72
8
 73
4
 74
0
 40
0
 40
0
 40
0
 40
0
 40
1
 40
1
 40
1
 40
1
 10
3.914625
 20
0.860000
 30
0.0
 10
3.896103
 20
0.858709
 30
0.0
 10
3.874311
 20
0.859150
 30
0.0
 10
3.855438
 20
0.859382
 30
0.0
  0
SPLINE
  5
208
100
AcDbEntity
  8
Red
 62
1
100
AcDbSpline
 70
8
 71
3
 72
8
 73
4
 74
0
 40
0
 40
0
 40
0
 40
0
 40
1
 40
1
 40
1
 40
1
 10
3.855438
 20
0.859382
 30
0.0
 10
3.616532
 20
0.862228
 30
0.0
 10
3.381437
 20
0.935413
 30
0.0
 10
3.172131
 20
1.050632
 30
0.0
  0
SPLINE
  5
209
100
AcDbEntity
  8
Red
 62
1
100
AcDbSpline
 70
8
 71
3
 72
8
 73
4
 74
0
 40
0
 40
0
 40
0
 40
0
 40
1
 40
1
 40
1
 40
1
 10
3.172131
 20
1.050632
 30
0.0
 10
2.962826
 20
1.165846
 30
0.0
 10
2.778185
 20
1.322118
 30
0.0
 10
2.613652
 20
1.495361
 30
0.0
  0
SPLINE
  5
20a
100
AcDbEntity
  8
Red
 62
1
100
AcDbSpline
 70
8
 71
3
 72
8
 73
4
 74
0
 40
0
 40
0
 40
0
 40
0
 40
1
 40
1
 40
1
 40
1
 10
2.613652
 20
1.495361
 30
0.0
 10
2.428568
 20
1.690243
 30
0.0
 10
2.267628
 20
1.907168
 30
0.0
 10
2.079766
 20
2.099375
 30
0.0
  0
SPLINE
  5
20b
100
AcDbEntity
  8
Red
 62
1
100
AcDbSpline
 70
8
 71
3
 72
8
 73
4
 74
0
 40
0
 40
0
 40
0
 40
0
 40
1
 40
1
 40
1
 40
1
 10
2.079766
 20
2.099375
 30
0.0
 10
1.933942
 20
2.248572
 30
0.0
 10
1.772431
 20
2.382225
 30
0.0
 10
1.600230
 20
2.500001
 30
0.0
  0
SPLINE
  5
20c
100
AcDbEntity
  8
Red
 62
1
100
AcDbSpline
 70
8
 71
3
 72
8
 73
4
 74
0
 40
0
 40
0
 40
0
 40
0
 40
1
 40
1
 40
1
 40
1
 10
1.600230
 20
2.500001
 30
0.0
 10
1.326847
 20
2.686979
 30
0.0
 10
1.020551
 20
2.839272
 30
0.0
 10
0.808563
 20
3.093751
 30
0.0
  0
SPLINE
  5
20d
100
AcDbEntity
  8
Red
 62
1
100
AcDbSpline
 70
8
 71
3
 72
8
 73
4
 74
0
 40
0
 40
0
 40
0
 40
0
 40
1
 40
1
 40
1
 40
1
 10
0.808563
 20
3.093751
 30
0.0
 10
0.717042
 20
3.203616
 30
0.0
 10
0.645918
 20
3.329917
 30
0.0
 10
0.595021
 20
3.463543
 30
0.0
  0
SPLINE
  5
20e
100
AcDbEntity
  8
Red
 62
1
100
AcDbSpline
 70
8
 71
3
 72
8
 73
4
 74
0
 40
0
 40
0
 40
0
 40
0
 40
1
 40
1
 40
1
 40
1
 10
0.595021
 20
3.463543
 30
0.0
 10
0.493096
 20
3.731142
 30
0.0
 10
0.474782
 20
4.037628
 30
0.0
 10
0.584605
 20
4.302085
 30
0.0
  0
SPLINE
  5
20f
100
AcDbEntity
  8
Red
 62
1
100
AcDbSpline
 70
8
 71
3
 72
8
 73
4
 74
0
 40
0
 40
0
 40
0
 40
0
 40
1
 40
1
 40
1
 40
1
 10
0.584605
 20
4.302085
 30
0.0
 10
0.619673
 20
4.386529
 30
0.0
 10
0.667222
 20
4.465778
 30
0.0
 10
0.722625
 20
4.548178
 30
0.0
  0
SPLINE
  5
210
100
AcDbEntity
  8
Red
 62
1
100
AcDbSpline
 70
8
 71
3
 72
8
 73
4
 74
0
 40
0
 40
0
 40
0
 40
0
 40
1
 40
1
 40
1
 40
1
 10
0.722625
 20
4.548178
 30
0.0
 10
0.710925
 20
4.459508
 30
0.0
 10
0.709182
 20
4.358454
 30
0.0
 10
0.714813
 20
4.257812
 30
0.0
  0
LWPOLYLINE
  5
211
100
AcDbEntity
  8
Red
 62
1
100
AcDbPolyline
 90
1
 70
1
 10
8.241999
 20
11.156613
 30
0.0
  0
SPLINE
  5
212
100
AcDbEntity
  8
Red
 62
1
100
AcDbSpline
 70
8
 71
3
 72
8
 73
4
 74
0
 40
0
 40
0
 40
0
 40
0
 40
1
 40
1
 40
1
 40
1
 10
11.277313
 20
4.257812
 30
0.0
 10
11.265481
 20
4.046334
 30
0.0
 10
11.220465
 20
3.835439
 30
0.0
 10
11.131479
 20
3.643229
 30
0.0
  0
SPLINE
  5
213
100
AcDbEntity
  8
Red
 62
1
100
AcDbSpline
 70
8
 71
3
 72
8
 73
4
 74
0
 40
0
 40
0
 40
0
 40
0
 40
1
 40
1
 40
1
 40
1
 10
11.131479
 20
3.643229
 30
0.0
 10
11.005008
 20
3.370050
 30
0.0
 10
10.794061
 20
3.143245
 30
0.0
 10
10.558563
 20
2.955729
 30
0.0
  0
SPLINE
  5
214
100
AcDbEntity
  8
Red
 62
1
100
AcDbSpline
 70
8
 71
3
 72
8
 73
4
 74
0
 40
0
 40
0
 40
0
 40
0
 40
1
 40
1
 40
1
 40
1
 10
10.558563
 20
2.955729
 30
0.0
 10
10.300760
 20
2.750453
 30
0.0
 10
10.010805
 20
2.587318
 30
0.0
 10
9.706223
 20
2.458737
 30
0.0
  0
SPLINE
  5
215
100
AcDbEntity
  8
Red
 62
1
100
AcDbSpline
 70
8
 71
3
 72
8
 73
4
 74
0
 40
0
 40
0
 40
0
 40
0
 40
1
 40
1
 40
1
 40
1
 10
9.706223
 20
2.458737
 30
0.0
 10
9.552001
 20
2.353615
 30
0.0
 10
9.403223
 20
2.242522
 30
0.0
 10
9.259707
 20
2.125003
 30
0.0
  0
SPLINE
  5
216
100
AcDbEntity
  8
Red
 62
1
100
AcDbSpline
 70
8
 71
3
 72
8
 73
4
 74
0
 40
0
 40
0
 40
0
 40
0
 40
1
 40
1
 40
1
 40
1
 10
9.259707
 20
2.125003
 30
0.0
 10
9.079922
 20
1.977785
 30
0.0
 10
8.908558
 20
1.820632
 30
0.0
 10
8.733060
 20
1.668330
 30
0.0
  0
SPLINE
  5
217
100
AcDbEntity
  8
Red
 62
1
100
AcDbSpline
 70
8
 71
3
 72
8
 73
4
 74
0
 40
0
 40
0
 40
0
 40
0
 40
1
 40
1
 40
1
 40
1
 10
8.733060
 20
1.668330
 30
0.0
 10
8.580126
 20
1.535611
 30
0.0
 10
8.422028
 20
1.405243
 30
0.0
 10
8.239897
 20
1.316749
 30
0.0
  0
SPLINE
  5
218
100
AcDbEntity
  8
Red
 62
1
100
AcDbSpline
 70
8
 71
3
 72
8
 73
4
 74
0
 40
0
 40
0
 40
0
 40
0
 40
1
 40
1
 40
1
 40
1
 10
8.239897
 20
1.316749
 30
0.0
 10
8.211930
 20
1.303161
 30
0.0
 10
8.183303
 20
1.289680
 30
0.0
 10
8.150301
 20
1.278532
 30
0.0
  0
SPLINE
  5
219
100
AcDbEntity
  8
Red
 62
1
100
AcDbSpline
 70
8
 71
3
 72
8
 73
4
 74
0
 40
0
 40
0
 40
0
 40
0
 40
1
 40
1
 40
1
 40
1
 10
8.150301
 20
1.278532
 30
0.0
 10
8.146435
 20
1.170553
 30
0.0
 10
8.131949
 20
1.068055
 30
0.0
 10
8.108044
 20
0.968753
 30
0.0
  0
SPLINE
  5
21a
100
AcDbEntity
  8
Red
 62
1
100
AcDbSpline
 70
8
 71
3
 72
8
 73
4
 74
0
 40
0
 40
0
 40
0
 40
0
 40
1
 40
1
 40
1
 40
1
 10
8.108044
 20
0.968753
 30
0.0
 10
8.100271
 20
0.936466
 30
0.0
 10
8.088717
 20
0.898194
 30
0.0
 10
8.077501
 20
0.860000
 30
0.0
  0
SPLINE
  5
21b
100
AcDbEntity
  8
Red
 62
1
100
AcDbSpline
 70
8
 71
3
 72
8
 73
4
 74
0
 40
0
 40
0
 40
0
 40
0
 40
1
 40
1
 40
1
 40
1
 10
8.077501
 20
0.860000
 30
0.0
 10
8.096023
 20
0.858709
 30
0.0
 10
8.117814
 20
0.859150
 30
0.0
 10
8.136688
 20
0.859382
 30
0.0
  0
SPLINE
  5
21c
100
AcDbEntity
  8
Red
 62
1
100
AcDbSpline
 70
8
 71
3
 72
8
 73
4
 74
0
 40
0
 40
0
 40
0
 40
0
 40
1
 40
1
 40
1
 40
1
 10
8.136688
 20
0.859382
 30
0.0
 10
8.375594
 20
0.862228
 30
0.0
 10
8.610689
 20
0.935413
 30
0.0
 10
8.819994
 20
1.050632
 30
0.0
  0
SPLINE
  5
21d
100
AcDbEntity
  8
Red
 62
1
100
AcDbSpline
 70
8
 71
3
 72
8
 73
4
 74
0
 40
0
 40
0
 40
0
 40
0
 40
1
 40
1
 40
1
 40
1
 10
8.819994
 20
1.050632
 30
0.0
 10
9.029300
 20
1.165846
 30
0.0
 10
9.213940
 20
1.322118
 30
0.0
 10
9.378473
 20
1.495361
 30
0.0
  0
SPLINE
  5
21e
100
AcDbEntity
  8
Red
 62
1
100
AcDbSpline
 70
8
 71
3
 72
8
 73
4
 74
0
 40
0
 40
0
 40
0
 40
0
 40
1
 40
1
 40
1
 40
1
 10
9.378473
 20
1.495361
 30
0.0
 10
9.563558
 20
1.690243
 30
0.0
 10
9.724498
 20
1.907168
 30
0.0
 10
9.912359
 20
2.099375
 30
0.0
  0
SPLINE
  5
21f
100
AcDbEntity
  8
Red
 62
1
100
AcDbSpline
 70
8
 71
3
 72
8
 73
4
 74
0
 40
0
 40
0
 40
0
 40
0
 40
1
 40
1
 40
1
 40
1
 10
9.912359
 20
2.099375
 30
0.0
 10
10.058184
 20
2.248572
 30
0.0
 10
10.219694
 20
2.382225
 30
0.0
 10
10.391896
 20
2.500001
 30
0.0
  0
SPLINE
  5
220
100
AcDbEntity
  8
Red
 62
1
100
AcDbSpline
 70
8
 71
3
 72
8
 73
4
 74
0
 40
0
 40
0
 40
0
 40
0
 40
1
 40
1
 40
1
 40
1
 10
10.391896
 20
2.500001
 30
0.0
 10
10.665278
 20
2.686979
 30
0.0
 10
10.971574
 20
2.839272
 30
0.0
 10
11.183563
 20
3.093751
 30
0.0
  0
SPLINE
  5
221
100
AcDbEntity
  8
Red
 62
1
100
AcDbSpline
 70
8
 71
3
 72
8
 73
4
 74
0
 40
0
 40
0
 40
0
 40
0
 40
1
 40
1
 40
1
 40
1
 10
11.183563
 20
3.093751
 30
0.0
 10
11.275083
 20
3.203616
 30
0.0
 10
11.346208
 20
3.329917
 30
0.0
 10
11.397104
 20
3.463543
 30
0.0
  0
SPLINE
  5
222
100
AcDbEntity
  8
Red
 62
1
100
AcDbSpline
 70
8
 71
3
 72
8
 73
4
 74
0
 40
0
 40
0
 40
0
 40
0
 40
1
 40
1
 40
1
 40
1
 10
11.397104
 20
3.463543
 30
0.0
 10
11.499029
 20
3.731142
 30
0.0
 10
11.517344
 20
4.037628
 30
0.0
 10
11.407521
 20
4.302085
 30
0.0
  0
SPLINE
  5
223
100
AcDbEntity
  8
Red
 62
1
100
AcDbSpline
 70
8
 71
3
 72
8
 73
4
 74
0
 40
0
 40
0
 40
0
 40
0
 40
1
 40
1
 40
1
 40
1
 10
11.407521
 20
4.302085
 30
0.0
 10
11.372453
 20
4.386529
 30
0.0
 10
11.324904
 20
4.465778
 30
0.0
 10
11.269500
 20
4.548178
 30
0.0
  0
SPLINE
  5
224
100
AcDbEntity
  8
Red
 62
1
100
AcDbSpline
 70
8
 71
3
 72
8
 73
4
 74
0
 40
0
 40
0
 40
0
 40
0
 40
1
 40
1
 40
1
 40
1
 10
11.269500
 20
4.548178
 30
0.0
 10
11.281201
 20
4.459508
 30
0.0
 10
11.282943
 20
4.358454
 30
0.0
 10
11.277313
 20
4.257812
 30
0.0
  0
LWPOLYLINE
  5
225
100
AcDbEntity
  8
Red
 62
1
100
AcDbPolyline
 90
1
 70
1
 10
0.714813
 20
4.257812
 30
0.0
  0
LWPOLYLINE
  5
226
100
AcDbEntity
  8
Red
 62
1
100
AcDbPolyline
 90
1
 70
1
 10
11.277313
 20
4.257812
 30
0.0
  0
SPLINE
  5
227
100
AcDbEntity
  8
Red
 62
1
100
AcDbSpline
 70
8
 71
3
 72
8
 73
4
 74
0
 40
0
 40
0
 40
0
 40
0
 40
1
 40
1
 40
1
 40
1
 10
5.815179
 20
0.323941
 30
0.0
 10
5.679455
 20
0.324059
 30
0.0
 10
5.543732
 20
0.324138
 30
0.0
 10
5.408008
 20
0.324098
 30
0.0
  0
SPLINE
  5
228
100
AcDbEntity
  8
Red
 62
1
100
AcDbSpline
 70
8
 71
3
 72
8
 73
4
 74
0
 40
0
 40
0
 40
0
 40
0
 40
1
 40
1
 40
1
 40
1
 10
5.408008
 20
0.324098
 30
0.0
 10
5.254945
 20
0.324075
 30
0.0
 10
5.101429
 20
0.323980
 30
0.0
 10
4.949493
 20
0.342513
 30
0.0
  0
SPLINE
  5
229
100
AcDbEntity
  8
Red
 62
1
100
AcDbSpline
 70
8
 71
3
 72
8
 73
4
 74
0
 40
0
 40
0
 40
0
 40
0
 40
1
 40
1
 40
1
 40
1
 10
4.949493
 20
0.342513
 30
0.0
 10
4.777033
 20
0.363543
 30
0.0
 10
4.603771
 20
0.410341
 30
0.0
 10
4.461516
 20
0.510082
 30
0.0
  0
SPLINE
  5
22a
100
AcDbEntity
  8
Red
 62
1
100
AcDbSpline
 70
8
 71
3
 72
8
 73
4
 74
0
 40
0
 40
0
 40
0
 40
0
 40
1
 40
1
 40
1
 40
1
 10
4.461516
 20
0.510082
 30
0.0
 10
4.429802
 20
0.532318
 30
0.0
 10
4.398501
 20
0.549501
 30
0.0
 10
4.374538
 20
0.574819
 30
0.0
  0
SPLINE
  5
22b
100
AcDbEntity
  8
Red
 62
1
100
AcDbSpline
 70
8
 71
3
 72
8
 73
4
 74
0
 40
0
 40
0
 40
0
 40
0
 40
1
 40
1
 40
1
 40
1
 10
4.374538
 20
0.574819
 30
0.0
 10
4.925959
 20
0.680805
 30
0.0
 10
5.383507
 20
1.191462
 30
0.0
 10
5.996063
 20
1.187425
 30
0.0
  0
SPLINE
  5
22c
100
AcDbEntity
  8
Red
 62
1
100
AcDbSpline
 70
8
 71
3
 72
8
 73
4
 74
0
 40
0
 40
0
 40
0
 40
0
 40
1
 40
1
 40
1
 40
1
 10
5.996063
 20
1.187425
 30
0.0
 10
6.608619
 20
1.191462
 30
0.0
 10
7.066166
 20
0.680805
 30
0.0
 10
7.617588
 20
0.574819
 30
0.0
  0
SPLINE
  5
22d
100
AcDbEntity
  8
Red
 62
1
100
AcDbSpline
 70
8
 71
3
 72
8
 73
4
 74
0
 40
0
 40
0
 40
0
 40
0
 40
1
 40
1
 40
1
 40
1
 10
7.617588
 20
0.574819
 30
0.0
 10
7.593625
 20
0.549501
 30
0.0
 10
7.562324
 20
0.532318
 30
0.0
 10
7.530610
 20
0.510082
 30
0.0
  0
SPLINE
  5
22e
100
AcDbEntity
  8
Red
 62
1
100
AcDbSpline
 70
8
 71
3
 72
8
 73
4
 74
0
 40
0
 40
0
 40
0
 40
0
 40
1
 40
1
 40
1
 40
1
 10
7.530610
 20
0.510082
 30
0.0
 10
7.388354
 20
0.410341
 30
0.0
 10
7.215093
 20
0.363543
 30
0.0
 10
7.042633
 20
0.342513
 30
0.0
  0
SPLINE
  5
22f
100
AcDbEntity
  8
Red
 62
1
100
AcDbSpline
 70
8
 71
3
 72
8
 73
4
 74
0
 40
0
 40
0
 40
0
 40
0
 40
1
 40
1
 40
1
 40
1
 10
7.042633
 20
0.342513
 30
0.0
 10
6.890696
 20
0.323980
 30
0.0
 10
6.737180
 20
0.324075
 30
0.0
 10
6.584118
 20
0.324098
 30
0.0
  0
SPLINE
  5
230
100
AcDbEntity
  8
Red
 62
1
100
AcDbSpline
 70
8
 71
3
 72
8
 73
4
 74
0
 40
0
 40
0
 40
0
 40
0
 40
1
 40
1
 40
1
 40
1
 10
6.584118
 20
0.324098
 30
0.0
 10
6.448394
 20
0.324138
 30
0.0
 10
6.312670
 20
0.324059
 30
0.0
 10
6.176946
 20
0.323941
 30
0.0
  0
LWPOLYLINE
  5
231
100
AcDbEntity
  8
Red
 62
1
100
AcDbPolyline
 90
2
 70
0
 10
5.996063
 20
0.324862
 30
0.0
 10
5.815179
 20
0.323941
 30
0.0
  0
SPLINE
  5
232
100
AcDbEntity
  8
Red
 62
1
100
AcDbSpline
 70
8
 71
3
 72
8
 73
4
 74
0
 40
0
 40
0
 40
0
 40
0
 40
1
 40
1
 40
1
 40
1
 10
4.161362
 20
0.929924
 30
0.0
 10
4.136749
 20
1.010031
 30
0.0
 10
4.122712
 20
1.114481
 30
0.0
 10
4.112803
 20
1.199616
 30
0.0
  0
SPLINE
  5
233
100
AcDbEntity
  8
Red
 62
1
100
AcDbSpline
 70
8
 71
3
 72
8
 73
4
 74
0
 40
0
 40
0
 40
0
 40
0
 40
1
 40
1
 40
1
 40
1
 10
4.112803
 20
1.199616
 30
0.0
 10
4.207464
 20
1.184256
 30
0.0
 10
4.310674
 20
1.175786
 30
0.0
 10
4.407035
 20
1.188740
 30
0.0
  0
SPLINE
  5
234
100
AcDbEntity
  8
Red
 62
1
100
AcDbSpline
 70
8
 71
3
 72
8
 73
4
 74
0
 40
0
 40
0
 40
0
 40
0
 40
1
 40
1
 40
1
 40
1
 10
4.407035
 20
1.188740
 30
0.0
 10
4.576856
 20
1.211569
 30
0.0
 10
4.733199
 20
1.293482
 30
0.0
 10
4.875835
 20
1.388431
 30
0.0
  0
SPLINE
  5
235
100
AcDbEntity
  8
Red
 62
1
100
AcDbSpline
 70
8
 71
3
 72
8
 73
4
 74
0
 40
0
 40
0
 40
0
 40
0
 40
1
 40
1
 40
1
 40
1
 10
4.875835
 20
1.388431
 30
0.0
 10
4.972586
 20
1.452836
 30
0.0
 10
5.065685
 20
1.524561
 30
0.0
 10
5.141000
 20
1.613085
 30
0.0
  0
SPLINE
  5
236
100
AcDbEntity
  8
Red
 62
1
100
AcDbSpline
 70
8
 71
3
 72
8
 73
4
 74
0
 40
0
 40
0
 40
0
 40
0
 40
1
 40
1
 40
1
 40
1
 10
5.141000
 20
1.613085
 30
0.0
 10
5.258539
 20
1.751238
 30
0.0
 10
5.327155
 20
1.923046
 30
0.0
 10
5.409848
 20
2.084489
 30
0.0
  0
SPLINE
  5
237
100
AcDbEntity
  8
Red
 62
1
100
AcDbSpline
 70
8
 71
3
 72
8
 73
4
 74
0
 40
0
 40
0
 40
0
 40
0
 40
1
 40
1
 40
1
 40
1
 10
5.409848
 20
2.084489
 30
0.0
 10
5.465014
 20
2.192191
 30
0.0
 10
5.527562
 20
2.296938
 30
0.0
 10
5.606880
 20
2.388324
 30
0.0
  0
SPLINE
  5
238
100
AcDbEntity
  8
Red
 62
1
100
AcDbSpline
 70
8
 71
3
 72
8
 73
4
 74
0
 40
0
 40
0
 40
0
 40
0
 40
1
 40
1
 40
1
 40
1
 10
5.606880
 20
2.388324
 30
0.0
 10
5.663755
 20
2.453852
 30
0.0
 10
5.728989
 20
2.512117
 30
0.0
 10
5.800499
 20
2.561260
 30
0.0
  0
SPLINE
  5
239
100
AcDbEntity
  8
Red
 62
1
100
AcDbSpline
 70
8
 71
3
 72
8
 73
4
 74
0
 40
0
 40
0
 40
0
 40
0
 40
1
 40
1
 40
1
 40
1
 10
5.800499
 20
2.561260
 30
0.0
 10
5.791813
 20
2.312140
 30
0.0
 10
5.716552
 20
2.065648
 30
0.0
 10
5.584603
 20
1.854164
 30
0.0
  0
SPLINE
  5
23a
100
AcDbEntity
  8
Red
 62
1
100
AcDbSpline
 70
8
 71
3
 72
8
 73
4
 74
0
 40
0
 40
0
 40
0
 40
0
 40
1
 40
1
 40
1
 40
1
 10
5.584603
 20
1.854164
 30
0.0
 10
5.478101
 20
1.683465
 30
0.0
 10
5.336553
 20
1.536916
 30
0.0
 10
5.183562
 20
1.406247
 30
0.0
  0
SPLINE
  5
23b
100
AcDbEntity
  8
Red
 62
1
100
AcDbSpline
 70
8
 71
3
 72
8
 73
4
 74
0
 40
0
 40
0
 40
0
 40
0
 40
1
 40
1
 40
1
 40
1
 10
5.183562
 20
1.406247
 30
0.0
 10
5.043755
 20
1.286840
 30
0.0
 10
4.893146
 20
1.179361
 30
0.0
 10
4.730436
 20
1.093747
 30
0.0
  0
SPLINE
  5
23c
100
AcDbEntity
  8
Red
 62
1
100
AcDbSpline
 70
8
 71
3
 72
8
 73
4
 74
0
 40
0
 40
0
 40
0
 40
0
 40
1
 40
1
 40
1
 40
1
 10
4.730436
 20
1.093747
 30
0.0
 10
4.602696
 20
1.026534
 30
0.0
 10
4.316648
 20
0.929143
 30
0.0
 10
4.173620
 20
0.895188
 30
0.0
  0
SPLINE
  5
23d
100
AcDbEntity
  8
Red
 62
1
100
AcDbSpline
 70
8
 71
3
 72
8
 73
4
 74
0
 40
0
 40
0
 40
0
 40
0
 40
1
 40
1
 40
1
 40
1
 10
4.173620
 20
0.895188
 30
0.0
 10
4.167010
 20
0.907559
 30
0.0
 10
4.163670
 20
0.922409
 30
0.0
 10
4.161362
 20
0.929924
 30
0.0
  0
LWPOLYLINE
  5
23e
100
AcDbEntity
  8
Red
 62
1
100
AcDbPolyline
 90
2
 70
0
 10
6.176946
 20
0.323941
 30
0.0
 10
5.996063
 20
0.324862
 30
0.0
  0
SPLINE
  5
23f
100
AcDbEntity
  8
Red
 62
1
100
AcDbSpline
 70
8
 71
3
 72
8
 73
4
 74
0
 40
0
 40
0
 40
0
 40
0
 40
1
 40
1
 40
1
 40
1
 10
7.830763
 20
0.929924
 30
0.0
 10
7.855377
 20
1.010031
 30
0.0
 10
7.869414
 20
1.114481
 30
0.0
 10
7.879323
 20
1.199616
 30
0.0
  0
SPLINE
  5
240
100
AcDbEntity
  8
Red
 62
1
100
AcDbSpline
 70
8
 71
3
 72
8
 73
4
 74
0
 40
0
 40
0
 40
0
 40
0
 40
1
 40
1
 40
1
 40
1
 10
7.879323
 20
1.199616
 30
0.0
 10
7.784661
 20
1.184256
 30
0.0
 10
7.681451
 20
1.175786
 30
0.0
 10
7.585091
 20
1.188740
 30
0.0
  0
SPLINE
  5
241
100
AcDbEntity
  8
Red
 62
1
100
AcDbSpline
 70
8
 71
3
 72
8
 73
4
 74
0
 40
0
 40
0
 40
0
 40
0
 40
1
 40
1
 40
1
 40
1
 10
7.585091
 20
1.188740
 30
0.0
 10
7.415269
 20
1.211569
 30
0.0
 10
7.258927
 20
1.293482
 30
0.0
 10
7.116290
 20
1.388431
 30
0.0
  0
SPLINE
  5
242
100
AcDbEntity
  8
Red
 62
1
100
AcDbSpline
 70
8
 71
3
 72
8
 73
4
 74
0
 40
0
 40
0
 40
0
 40
0
 40
1
 40
1
 40
1
 40
1
 10
7.116290
 20
1.388431
 30
0.0
 10
7.019539
 20
1.452836
 30
0.0
 10
6.926441
 20
1.524561
 30
0.0
 10
6.851126
 20
1.613085
 30
0.0
  0
SPLINE
  5
243
100
AcDbEntity
  8
Red
 62
1
100
AcDbSpline
 70
8
 71
3
 72
8
 73
4
 74
0
 40
0
 40
0
 40
0
 40
0
 40
1
 40
1
 40
1
 40
1
 10
6.851126
 20
1.613085
 30
0.0
 10
6.733586
 20
1.751238
 30
0.0
 10
6.664970
 20
1.923046
 30
0.0
 10
6.582278
 20
2.084489
 30
0.0
  0
SPLINE
  5
244
100
AcDbEntity
  8
Red
 62
1
100
AcDbSpline
 70
8
 71
3
 72
8
 73
4
 74
0
 40
0
 40
0
 40
0
 40
0
 40
1
 40
1
 40
1
 40
1
 10
6.582278
 20
2.084489
 30
0.0
 10
6.527112
 20
2.192191
 30
0.0
 10
6.464564
 20
2.296938
 30
0.0
 10
6.385245
 20
2.388324
 30
0.0
  0
SPLINE
  5
245
100
AcDbEntity
  8
Red
 62
1
100
AcDbSpline
 70
8
 71
3
 72
8
 73
4
 74
0
 40
0
 40
0
 40
0
 40
0
 40
1
 40
1
 40
1
 40
1
 10
6.385245
 20
2.388324
 30
0.0
 10
6.328370
 20
2.453852
 30
0.0
 10
6.263137
 20
2.512117
 30
0.0
 10
6.191627
 20
2.561260
 30
0.0
  0
SPLINE
  5
246
100
AcDbEntity
  8
Red
 62
1
100
AcDbSpline
 70
8
 71
3
 72
8
 73
4
 74
0
 40
0
 40
0
 40
0
 40
0
 40
1
 40
1
 40
1
 40
1
 10
6.191627
 20
2.561260
 30
0.0
 10
6.200313
 20
2.312140
 30
0.0
 10
6.275573
 20
2.065648
 30
0.0
 10
6.407522
 20
1.854164
 30
0.0
  0
SPLINE
  5
247
100
AcDbEntity
  8
Red
 62
1
100
AcDbSpline
 70
8
 71
3
 72
8
 73
4
 74
0
 40
0
 40
0
 40
0
 40
0
 40
1
 40
1
 40
1
 40
1
 10
6.407522
 20
1.854164
 30
0.0
 10
6.514024
 20
1.683465
 30
0.0
 10
6.655572
 20
1.536916
 30
0.0
 10
6.808564
 20
1.406247
 30
0.0
  0
SPLINE
  5
248
100
AcDbEntity
  8
Red
 62
1
100
AcDbSpline
 70
8
 71
3
 72
8
 73
4
 74
0
 40
0
 40
0
 40
0
 40
0
 40
1
 40
1
 40
1
 40
1
 10
6.808564
 20
1.406247
 30
0.0
 10
6.948371
 20
1.286840
 30
0.0
 10
7.098980
 20
1.179361
 30
0.0
 10
7.261689
 20
1.093747
 30
0.0
  0
SPLINE
  5
249
100
AcDbEntity
  8
Red
 62
1
100
AcDbSpline
 70
8
 71
3
 72
8
 73
4
 74
0
 40
0
 40
0
 40
0
 40
0
 40
1
 40
1
 40
1
 40
1
 10
7.261689
 20
1.093747
 30
0.0
 10
7.389429
 20
1.026534
 30
0.0
 10
7.675478
 20
0.929143
 30
0.0
 10
7.818506
 20
0.895188
 30
0.0
  0
SPLINE
  5
24a
100
AcDbEntity
  8
Red
 62
1
100
AcDbSpline
 70
8
 71
3
 72
8
 73
4
 74
0
 40
0
 40
0
 40
0
 40
0
 40
1
 40
1
 40
1
 40
1
 10
7.818506
 20
0.895188
 30
0.0
 10
7.825115
 20
0.907559
 30
0.0
 10
7.828455
 20
0.922409
 30
0.0
 10
7.830763
 20
0.929924
 30
0.0
  0
LWPOLYLINE
  5
24b
100
AcDbEntity
  8
Red
 62
1
100
AcDbPolyline
 90
1
 70
1
 10
4.161362
 20
0.929924
 30
0.0
  0
SPLINE
  5
24c
100
AcDbEntity
  8
Red
 62
1
100
AcDbSpline
 70
8
 71
3
 72
8
 73
4
 74
0
 40
0
 40
0
 40
0
 40
0
 40
1
 40
1
 40
1
 40
1
 10
4.113483
 20
1.605726
 30
0.0
 10
4.133096
 20
1.777852
 30
0.0
 10
4.180998
 20
1.946038
 30
0.0
 10
4.246065
 20
2.106594
 30
0.0
  0
SPLINE
  5
24d
100
AcDbEntity
  8
Red
 62
1
100
AcDbSpline
 70
8
 71
3
 72
8
 73
4
 74
0
 40
0
 40
0
 40
0
 40
0
 40
1
 40
1
 40
1
 40
1
 10
4.246065
 20
2.106594
 30
0.0
 10
4.295966
 20
2.229726
 30
0.0
 10
4.356017
 20
2.348744
 30
0.0
 10
4.425408
 20
2.462043
 30
0.0
  0
LWPOLYLINE
  5
24e
100
AcDbEntity
  8
Red
 62
1
100
AcDbPolyline
 90
1
 70
1
 10
7.830763
 20
0.929924
 30
0.0
  0
SPLINE
  5
24f
100
AcDbEntity
  8
Red
 62
1
100
AcDbSpline
 70
8
 71
3
 72
8
 73
4
 74
0
 40
0
 40
0
 40
0
 40
0
 40
1
 40
1
 40
1
 40
1
 10
4.459488
 20
2.470154
 30
0.0
 10
4.716966
 20
2.531437
 30
0.0
 10
4.975027
 20
2.590508
 30
0.0
 10
5.234910
 20
2.640617
 30
0.0
  0
SPLINE
  5
250
100
AcDbEntity
  8
Red
 62
1
100
AcDbSpline
 70
8
 71
3
 72
8
 73
4
 74
0
 40
0
 40
0
 40
0
 40
0
 40
1
 40
1
 40
1
 40
1
 10
5.234910
 20
2.640617
 30
0.0
 10
5.206913
 20
2.539347
 30
0.0
 10
5.173079
 20
2.439690
 30
0.0
 10
5.133633
 20
2.342307
 30
0.0
  0
SPLINE
  5
251
100
AcDbEntity
  8
Red
 62
1
100
AcDbSpline
 70
8
 71
3
 72
8
 73
4
 74
0
 40
0
 40
0
 40
0
 40
0
 40
1
 40
1
 40
1
 40
1
 10
5.133633
 20
2.342307
 30
0.0
 10
5.038482
 20
2.107404
 30
0.0
 10
4.905209
 20
1.879713
 30
0.0
 10
4.702739
 20
1.727271
 30
0.0
  0
SPLINE
  5
252
100
AcDbEntity
  8
Red
 62
1
100
AcDbSpline
 70
8
 71
3
 72
8
 73
4
 74
0
 40
0
 40
0
 40
0
 40
0
 40
1
 40
1
 40
1
 40
1
 10
4.702739
 20
1.727271
 30
0.0
 10
4.539646
 20
1.604476
 30
0.0
 10
4.319825
 20
1.537305
 30
0.0
 10
4.109146
 20
1.571147
 30
0.0
  0
SPLINE
  5
253
100
AcDbEntity
  8
Red
 62
1
100
AcDbSpline
 70
8
 71
3
 72
8
 73
4
 74
0
 40
0
 40
0
 40
0
 40
0
 40
1
 40
1
 40
1
 40
1
 10
4.109146
 20
1.571147
 30
0.0
 10
4.109784
 20
1.579108
 30
0.0
 10
4.112520
 20
1.597254
 30
0.0
 10
4.113483
 20
1.605726
 30
0.0
  0
LWPOLYLINE
  5
254
100
AcDbEntity
  8
Red
 62
1
100
AcDbPolyline
 90
2
 70
0
 10
4.425408
 20
2.462043
 30
0.0
 10
4.459488
 20
2.470154
 30
0.0
  0
SPLINE
  5
255
100
AcDbEntity
  8
Red
 62
1
100
AcDbSpline
 70
8
 71
3
 72
8
 73
4
 74
0
 40
0
 40
0
 40
0
 40
0
 40
1
 40
1
 40
1
 40
1
 10
7.878643
 20
1.605726
 30
0.0
 10
7.859030
 20
1.777852
 30
0.0
 10
7.811128
 20
1.946038
 30
0.0
 10
7.746060
 20
2.106594
 30
0.0
  0
SPLINE
  5
256
100
AcDbEntity
  8
Red
 62
1
100
AcDbSpline
 70
8
 71
3
 72
8
 73
4
 74
0
 40
0
 40
0
 40
0
 40
0
 40
1
 40
1
 40
1
 40
1
 10
7.746060
 20
2.106594
 30
0.0
 10
7.696160
 20
2.229726
 30
0.0
 10
7.636109
 20
2.348744
 30
0.0
 10
7.566717
 20
2.462043
 30
0.0
  0
LWPOLYLINE
  5
257
100
AcDbEntity
  8
Red
 62
1
100
AcDbPolyline
 90
1
 70
1
 10
4.113483
 20
1.605726
 30
0.0
  0
SPLINE
  5
258
100
AcDbEntity
  8
Red
 62
1
100
AcDbSpline
 70
8
 71
3
 72
8
 73
4
 74
0
 40
0
 40
0
 40
0
 40
0
 40
1
 40
1
 40
1
 40
1
 10
7.532638
 20
2.470154
 30
0.0
 10
7.275160
 20
2.531437
 30
0.0
 10
7.017098
 20
2.590508
 30
0.0
 10
6.757215
 20
2.640617
 30
0.0
  0
SPLINE
  5
259
100
AcDbEntity
  8
Red
 62
1
100
AcDbSpline
 70
8
 71
3
 72
8
 73
4
 74
0
 40
0
 40
0
 40
0
 40
0
 40
1
 40
1
 40
1
 40
1
 10
6.757215
 20
2.640617
 30
0.0
 10
6.785213
 20
2.539347
 30
0.0
 10
6.819047
 20
2.439690
 30
0.0
 10
6.858493
 20
2.342307
 30
0.0
  0
SPLINE
  5
25a
100
AcDbEntity
  8
Red
 62
1
100
AcDbSpline
 70
8
 71
3
 72
8
 73
4
 74
0
 40
0
 40
0
 40
0
 40
0
 40
1
 40
1
 40
1
 40
1
 10
6.858493
 20
2.342307
 30
0.0
 10
6.953643
 20
2.107404
 30
0.0
 10
7.086916
 20
1.879713
 30
0.0
 10
7.289386
 20
1.727271
 30
0.0
  0
SPLINE
  5
25b
100
AcDbEntity
  8
Red
 62
1
100
AcDbSpline
 70
8
 71
3
 72
8
 73
4
 74
0
 40
0
 40
0
 40
0
 40
0
 40
1
 40
1
 40
1
 40
1
 10
7.289386
 20
1.727271
 30
0.0
 10
7.452480
 20
1.604476
 30
0.0
 10
7.672301
 20
1.537305
 30
0.0
 10
7.882980
 20
1.571147
 30
0.0
  0
SPLINE
  5
25c
100
AcDbEntity
  8
Red
 62
1
100
AcDbSpline
 70
8
 71
3
 72
8
 73
4
 74
0
 40
0
 40
0
 40
0
 40
0
 40
1
 40
1
 40
1
 40
1
 10
7.882980
 20
1.571147
 30
0.0
 10
7.882342
 20
1.579108
 30
0.0
 10
7.879606
 20
1.597254
 30
0.0
 10
7.878643
 20
1.605726
 30
0.0
  0
LWPOLYLINE
  5
25d
100
AcDbEntity
  8
Red
 62
1
100
AcDbPolyline
 90
2
 70
0
 10
7.566717
 20
2.462043
 30
0.0
 10
7.532638
 20
2.470154
 30
0.0
  0
SPLINE
  5
25e
100
AcDbEntity
  8
Red
 62
1
100
AcDbSpline
 70
8
 71
3
 72
8
 73
4
 74
0
 40
0
 40
0
 40
0
 40
0
 40
1
 40
1
 40
1
 40
1
 10
3.715736
 20
1.753052
 30
0.0
 10
3.501718
 20
1.892683
 30
0.0
 10
3.301411
 20
2.053318
 30
0.0
 10
3.117566
 20
2.233951
 30
0.0
  0
SPLINE
  5
25f
100
AcDbEntity
  8
Red
 62
1
100
AcDbSpline
 70
8
 71
3
 72
8
 73
4
 74
0
 40
0
 40
0
 40
0
 40
0
 40
1
 40
1
 40
1
 40
1
 10
3.117566
 20
2.233951
 30
0.0
 10
3.440392
 20
2.204582
 30
0.0
 10
3.778388
 20
2.244083
 30
0.0
 10
4.083865
 20
2.356221
 30
0.0
  0
SPLINE
  5
260
100
AcDbEntity
  8
Red
 62
1
100
AcDbSpline
 70
8
 71
3
 72
8
 73
4
 74
0
 40
0
 40
0
 40
0
 40
0
 40
1
 40
1
 40
1
 40
1
 10
4.083865
 20
2.356221
 30
0.0
 10
3.981315
 20
2.168098
 30
0.0
 10
3.909165
 20
1.963447
 30
0.0
 10
3.871060
 20
1.752604
 30
0.0
  0
SPLINE
  5
261
100
AcDbEntity
  8
Red
 62
1
100
AcDbSpline
 70
8
 71
3
 72
8
 73
4
 74
0
 40
0
 40
0
 40
0
 40
0
 40
1
 40
1
 40
1
 40
1
 10
3.871060
 20
1.752604
 30
0.0
 10
3.866255
 20
1.726019
 30
0.0
 10
3.861989
 20
1.699339
 30
0.0
 10
3.854151
 20
1.670546
 30
0.0
  0
SPLINE
  5
262
100
AcDbEntity
  8
Red
 62
1
100
AcDbSpline
 70
8
 71
3
 72
8
 73
4
 74
0
 40
0
 40
0
 40
0
 40
0
 40
1
 40
1
 40
1
 40
1
 10
3.854151
 20
1.670546
 30
0.0
 10
3.801703
 20
1.694668
 30
0.0
 10
3.761576
 20
1.723145
 30
0.0
 10
3.715736
 20
1.753052
 30
0.0
  0
LWPOLYLINE
  5
263
100
AcDbEntity
  8
Red
 62
1
100
AcDbPolyline
 90
1
 70
1
 10
7.878643
 20
1.605726
 30
0.0
  0
SPLINE
  5
264
100
AcDbEntity
  8
Red
 62
1
100
AcDbSpline
 70
8
 71
3
 72
8
 73
4
 74
0
 40
0
 40
0
 40
0
 40
0
 40
1
 40
1
 40
1
 40
1
 10
8.276389
 20
1.753052
 30
0.0
 10
8.490408
 20
1.892683
 30
0.0
 10
8.690714
 20
2.053318
 30
0.0
 10
8.874560
 20
2.233951
 30
0.0
  0
SPLINE
  5
265
100
AcDbEntity
  8
Red
 62
1
100
AcDbSpline
 70
8
 71
3
 72
8
 73
4
 74
0
 40
0
 40
0
 40
0
 40
0
 40
1
 40
1
 40
1
 40
1
 10
8.874560
 20
2.233951
 30
0.0
 10
8.551734
 20
2.204582
 30
0.0
 10
8.213738
 20
2.244083
 30
0.0
 10
7.908260
 20
2.356221
 30
0.0
  0
SPLINE
  5
266
100
AcDbEntity
  8
Red
 62
1
100
AcDbSpline
 70
8
 71
3
 72
8
 73
4
 74
0
 40
0
 40
0
 40
0
 40
0
 40
1
 40
1
 40
1
 40
1
 10
7.908260
 20
2.356221
 30
0.0
 10
8.010810
 20
2.168098
 30
0.0
 10
8.082960
 20
1.963447
 30
0.0
 10
8.121066
 20
1.752604
 30
0.0
  0
SPLINE
  5
267
100
AcDbEntity
  8
Red
 62
1
100
AcDbSpline
 70
8
 71
3
 72
8
 73
4
 74
0
 40
0
 40
0
 40
0
 40
0
 40
1
 40
1
 40
1
 40
1
 10
8.121066
 20
1.752604
 30
0.0
 10
8.125871
 20
1.726019
 30
0.0
 10
8.130136
 20
1.699339
 30
0.0
 10
8.137975
 20
1.670546
 30
0.0
  0
SPLINE
  5
268
100
AcDbEntity
  8
Red
 62
1
100
AcDbSpline
 70
8
 71
3
 72
8
 73
4
 74
0
 40
0
 40
0
 40
0
 40
0
 40
1
 40
1
 40
1
 40
1
 10
8.137975
 20
1.670546
 30
0.0
 10
8.190423
 20
1.694668
 30
0.0
 10
8.230550
 20
1.723145
 30
0.0
 10
8.276389
 20
1.753052
 30
0.0
  0
LWPOLYLINE
  5
269
100
AcDbEntity
  8
Red
 62
1
100
AcDbPolyline
 90
1
 70
1
 10
3.715736
 20
1.753052
 30
0.0
  0
LWPOLYLINE
  5
26a
100
AcDbEntity
  8
Red
 62
1
100
AcDbPolyline
 90
1
 70
1
 10
8.276389
 20
1.753052
 30
0.0
  0
ENDSEC
  0
SECTION
  2
OBJECTS
  0
DICTIONARY
  5
C
330
0
100
AcDbDictionary
  3
ACAD_GROUP
350
D
  3
ACAD_MLINESTYLE
350
17
  0
DICTIONARY
  5
D
330
C
100
AcDbDictionary
  0
DICTIONARY
  5
1A
330
C
100
AcDbDictionary
  0
DICTIONARY
  5
17
330
C
100
AcDbDictionary
  3
STANDARD
350
18
  0
DICTIONARY
  5
19
330
C
100
AcDbDictionary
  0
ENDSEC
  0
EOF
